<svg xmlns="http://www.w3.org/2000/svg" xmlns:xlink="http://www.w3.org/1999/xlink" width="500" zoomAndPan="magnify" viewBox="0 0 375 374.999991" height="500" preserveAspectRatio="xMidYMid meet" version="1.0"><defs><clipPath id="1b4919a517"><path d="M 165.171875 138.351562 L 350.421875 138.351562 L 350.421875 237.351562 L 165.171875 237.351562 Z M 165.171875 138.351562 " clip-rule="nonzero"/></clipPath></defs><path fill="#ffffff" d="M 79.773438 138.882812 L 77.75 163.863281 L 77.753906 163.867188 C 76.796875 163.75 75.828125 163.683594 74.835938 163.683594 C 73.605469 163.683594 72.394531 163.777344 71.214844 163.957031 L 70.066406 151.84375 C 70.03125 151.464844 70.328125 151.136719 70.710938 151.140625 L 72.78125 151.140625 L 71.78125 138.882812 C 71.75 138.507812 72.046875 138.183594 72.425781 138.183594 L 79.132812 138.183594 C 79.507812 138.183594 79.804688 138.507812 79.773438 138.882812 Z M 62.851562 140.125 C 62.75 139.761719 62.359375 139.558594 62.007812 139.6875 L 55.703125 141.984375 C 55.351562 142.113281 55.183594 142.519531 55.339844 142.863281 L 60.464844 154.035156 L 58.519531 154.738281 C 58.160156 154.867188 57.988281 155.28125 58.15625 155.625 L 63.378906 166.617188 C 65.273438 165.574219 67.324219 164.789062 69.492188 164.292969 Z M 47.371094 147.082031 L 61.875 167.515625 L 61.878906 167.519531 C 60.039062 168.714844 58.375 170.15625 56.933594 171.800781 L 48.261719 163.253906 C 47.988281 162.988281 48.007812 162.542969 48.300781 162.296875 L 49.886719 160.972656 L 41.25 152.222656 C 40.984375 151.957031 41.003906 151.515625 41.292969 151.273438 L 46.429688 146.960938 C 46.722656 146.71875 47.152344 146.773438 47.371094 147.082031 Z M 35.207031 158.910156 C 34.898438 158.695312 34.46875 158.792969 34.277344 159.117188 L 30.925781 164.925781 C 30.738281 165.253906 30.867188 165.671875 31.207031 165.832031 L 42.316406 171.097656 L 41.277344 172.890625 C 41.085938 173.21875 41.222656 173.644531 41.570312 173.800781 L 52.640625 178.863281 C 53.441406 176.804688 54.511719 174.886719 55.820312 173.152344 Z M 27.023438 174.703125 C 27.085938 174.328125 27.453125 174.09375 27.820312 174.1875 L 52.0625 180.519531 C 51.433594 182.566406 51.082031 184.734375 51.035156 186.976562 L 38.898438 186.003906 C 38.515625 185.972656 38.246094 185.621094 38.3125 185.246094 L 38.675781 183.210938 L 26.4375 182.0625 C 26.0625 182.027344 25.792969 181.679688 25.859375 181.304688 L 27.019531 174.699219 Z M 26.105469 191.074219 C 25.730469 191.109375 25.464844 191.457031 25.527344 191.828125 L 26.695312 198.4375 C 26.761719 198.808594 27.128906 199.046875 27.492188 198.949219 L 39.386719 195.84375 L 39.742188 197.878906 C 39.808594 198.253906 40.183594 198.492188 40.550781 198.390625 L 52.28125 195.152344 C 51.589844 193.117188 51.164062 190.96875 51.050781 188.730469 L 26.109375 191.074219 Z M 29.988281 208.433594 C 29.796875 208.105469 29.925781 207.6875 30.269531 207.523438 L 52.902344 196.792969 C 53.765625 198.820312 54.90625 200.707031 56.265625 202.398438 L 46.347656 209.457031 C 46.039062 209.679688 45.601562 209.582031 45.414062 209.253906 L 44.382812 207.460938 L 34.269531 214.449219 C 33.957031 214.667969 33.53125 214.570312 33.339844 214.242188 Z M 57.410156 203.726562 L 39.804688 221.5625 C 39.542969 221.828125 39.5625 222.269531 39.851562 222.511719 L 44.988281 226.824219 C 45.277344 227.066406 45.714844 227.007812 45.933594 226.703125 L 53.046875 216.675781 L 54.628906 218.011719 C 54.917969 218.257812 55.359375 218.195312 55.578125 217.886719 L 62.484375 207.867188 C 60.609375 206.726562 58.90625 205.328125 57.414062 203.734375 L 57.414062 203.726562 Z M 53.933594 232.367188 C 53.578125 232.238281 53.410156 231.832031 53.566406 231.492188 L 53.570312 231.492188 L 64.015625 208.710938 C 65.933594 209.691406 68.007812 210.425781 70.1875 210.855469 L 67.125 222.636719 C 67.03125 223.003906 66.636719 223.210938 66.28125 223.082031 L 64.335938 222.367188 L 61.078125 234.226562 C 60.980469 234.589844 60.589844 234.789062 60.234375 234.660156 Z M 71.917969 211.128906 C 71.917969 211.128906 71.914062 211.128906 71.914062 211.128906 Z M 71.917969 211.128906 L 69.894531 236.113281 C 69.863281 236.488281 70.160156 236.8125 70.535156 236.8125 L 77.242188 236.8125 C 77.621094 236.8125 77.917969 236.488281 77.886719 236.113281 L 76.886719 223.855469 L 78.957031 223.855469 C 79.339844 223.863281 79.640625 223.53125 79.605469 223.152344 L 78.453125 211.039062 C 77.273438 211.21875 76.0625 211.3125 74.832031 211.3125 C 73.84375 211.3125 72.875 211.246094 71.917969 211.128906 Z M 96.101562 143.503906 C 96.257812 143.160156 96.089844 142.753906 95.734375 142.625 L 89.433594 140.332031 C 89.078125 140.203125 88.691406 140.402344 88.589844 140.765625 L 85.335938 152.625 L 83.390625 151.910156 C 83.03125 151.78125 82.640625 151.988281 82.542969 152.355469 L 79.480469 164.132812 C 81.660156 164.566406 83.734375 165.300781 85.65625 166.28125 L 96.101562 143.5 Z M 109.863281 153.429688 L 92.257812 171.269531 L 92.253906 171.261719 C 90.765625 169.667969 89.0625 168.269531 87.1875 167.128906 L 94.09375 157.109375 C 94.3125 156.796875 94.75 156.738281 95.042969 156.984375 L 96.625 158.316406 L 103.738281 148.289062 C 103.957031 147.984375 104.394531 147.925781 104.683594 148.171875 L 109.820312 152.480469 C 110.109375 152.726562 110.128906 153.164062 109.867188 153.429688 Z M 119.402344 167.46875 C 119.742188 167.304688 119.871094 166.886719 119.683594 166.5625 L 116.328125 160.75 C 116.140625 160.421875 115.714844 160.328125 115.398438 160.542969 L 105.285156 167.535156 L 104.257812 165.742188 C 104.066406 165.410156 103.632812 165.316406 103.324219 165.539062 L 93.402344 172.59375 C 94.765625 174.289062 95.90625 176.171875 96.765625 178.203125 Z M 122.972656 176.558594 L 124.136719 183.167969 L 124.140625 183.167969 C 124.207031 183.542969 123.941406 183.890625 123.5625 183.925781 L 98.617188 186.269531 C 98.503906 184.03125 98.078125 181.882812 97.386719 179.847656 L 109.121094 176.609375 C 109.484375 176.507812 109.859375 176.746094 109.929688 177.121094 L 110.28125 179.15625 L 122.175781 176.050781 C 122.539062 175.953125 122.910156 176.191406 122.976562 176.5625 Z M 121.84375 200.804688 C 122.210938 200.902344 122.578125 200.664062 122.644531 200.289062 L 123.808594 193.6875 C 123.871094 193.3125 123.605469 192.964844 123.230469 192.929688 L 110.992188 191.78125 L 111.355469 189.746094 C 111.421875 189.371094 111.152344 189.019531 110.769531 188.988281 L 98.632812 188.015625 C 98.582031 190.257812 98.230469 192.425781 97.605469 194.472656 L 121.847656 200.800781 L 121.847656 200.804688 Z M 115.386719 215.875 C 115.199219 216.199219 114.769531 216.296875 114.460938 216.082031 L 114.464844 216.078125 L 93.84375 201.835938 C 95.15625 200.105469 96.226562 198.1875 97.027344 196.128906 L 108.097656 201.191406 C 108.445312 201.351562 108.578125 201.773438 108.386719 202.101562 L 107.347656 203.894531 L 118.457031 209.160156 C 118.796875 209.320312 118.929688 209.738281 118.742188 210.066406 L 115.390625 215.875 Z M 87.789062 207.476562 L 102.292969 227.914062 C 102.511719 228.222656 102.945312 228.277344 103.234375 228.035156 L 108.371094 223.722656 C 108.660156 223.476562 108.679688 223.039062 108.417969 222.773438 L 99.777344 214.023438 L 101.367188 212.699219 C 101.65625 212.453125 101.675781 212.007812 101.40625 211.742188 L 92.730469 203.195312 C 91.289062 204.839844 89.625 206.28125 87.789062 207.476562 Z M 87.664062 235.304688 C 87.308594 235.433594 86.917969 235.234375 86.820312 234.871094 L 80.179688 210.703125 C 82.34375 210.207031 84.398438 209.417969 86.292969 208.378906 L 91.515625 219.367188 C 91.679688 219.714844 91.507812 220.125 91.152344 220.253906 L 89.203125 220.957031 L 94.332031 232.132812 C 94.488281 232.476562 94.320312 232.882812 93.964844 233.011719 Z M 87.664062 235.304688 " fill-opacity="1" fill-rule="evenodd"/><g clip-path="url(#1b4919a517)"><path fill="#ffffff" d="M 174.542969 164.535156 L 166.164062 164.535156 L 166.164062 138.351562 L 174.542969 138.351562 C 182.734375 138.351562 187.710938 143.585938 187.710938 151.441406 C 187.710938 159.261719 182.734375 164.535156 174.542969 164.535156 Z M 169.417969 141.34375 L 169.417969 161.542969 L 174.542969 161.542969 C 180.902344 161.542969 184.382812 157.542969 184.382812 151.441406 C 184.382812 145.308594 180.902344 141.34375 174.542969 141.34375 Z M 199.402344 164.761719 C 193.679688 164.761719 189.9375 160.832031 189.9375 154.996094 C 189.9375 149.199219 193.605469 145.234375 198.992188 145.234375 C 204.378906 145.234375 207.894531 148.636719 208.046875 154.285156 C 208.046875 154.699219 208.007812 155.148438 207.96875 155.597656 L 193.15625 155.597656 L 193.15625 155.859375 C 193.269531 159.488281 195.550781 162.03125 199.179688 162.03125 C 201.871094 162.03125 203.96875 160.609375 204.601562 158.140625 L 207.707031 158.140625 C 206.960938 161.957031 203.816406 164.761719 199.402344 164.761719 Z M 193.34375 153.050781 L 204.753906 153.050781 C 204.453125 149.761719 202.210938 147.925781 199.03125 147.925781 C 196.222656 147.925781 193.640625 149.945312 193.34375 153.050781 Z M 215.195312 164.535156 L 208.050781 145.457031 L 211.339844 145.457031 L 217.101562 161.058594 L 222.824219 145.457031 L 226.042969 145.457031 L 218.898438 164.535156 Z M 235.535156 164.761719 C 229.8125 164.761719 226.070312 160.832031 226.070312 154.996094 C 226.070312 149.199219 229.738281 145.234375 235.125 145.234375 C 240.511719 145.234375 244.027344 148.636719 244.175781 154.285156 C 244.175781 154.699219 244.140625 155.148438 244.101562 155.597656 L 229.289062 155.597656 L 229.289062 155.859375 C 229.402344 159.488281 231.683594 162.03125 235.3125 162.03125 C 238.003906 162.03125 240.101562 160.609375 240.734375 158.140625 L 243.839844 158.140625 C 243.09375 161.957031 239.949219 164.761719 235.535156 164.761719 Z M 229.476562 153.050781 L 240.886719 153.050781 C 240.585938 149.761719 238.339844 147.925781 235.160156 147.925781 C 232.355469 147.925781 229.773438 149.945312 229.476562 153.050781 Z M 246.929688 164.535156 L 246.929688 138.351562 L 249.996094 138.351562 L 249.996094 164.535156 Z M 262.242188 164.761719 C 256.667969 164.761719 252.777344 160.796875 252.777344 154.996094 C 252.777344 149.199219 256.667969 145.234375 262.242188 145.234375 C 267.816406 145.234375 271.707031 149.199219 271.707031 154.996094 C 271.707031 160.796875 267.816406 164.761719 262.242188 164.761719 Z M 262.242188 162.03125 C 266.023438 162.03125 268.566406 159.074219 268.566406 154.996094 C 268.566406 150.917969 266.023438 147.964844 262.242188 147.964844 C 258.464844 147.964844 255.921875 150.917969 255.921875 154.996094 C 255.921875 159.074219 258.464844 162.03125 262.242188 162.03125 Z M 284.089844 145.234375 C 289.367188 145.234375 293.257812 148.789062 293.257812 154.996094 C 293.257812 160.832031 289.367188 164.761719 284.089844 164.761719 C 280.875 164.761719 278.703125 163.453125 277.542969 161.617188 L 277.542969 172.019531 L 274.476562 172.019531 L 274.476562 145.457031 L 277.132812 145.457031 L 277.542969 148.523438 C 278.816406 146.765625 280.875 145.234375 284.089844 145.234375 Z M 283.792969 162.03125 C 287.570312 162.03125 290.113281 159.148438 290.113281 154.996094 C 290.113281 150.84375 287.570312 147.964844 283.792969 147.964844 C 280.050781 147.964844 277.507812 150.84375 277.507812 154.921875 C 277.507812 159.113281 280.050781 162.03125 283.792969 162.03125 Z M 304.804688 164.761719 C 299.082031 164.761719 295.339844 160.832031 295.339844 154.996094 C 295.339844 149.199219 299.007812 145.234375 304.394531 145.234375 C 309.78125 145.234375 313.296875 148.636719 313.445312 154.285156 C 313.445312 154.699219 313.410156 155.148438 313.371094 155.597656 L 298.558594 155.597656 L 298.558594 155.859375 C 298.671875 159.488281 300.953125 162.03125 304.582031 162.03125 C 307.273438 162.03125 309.371094 160.609375 310.003906 158.140625 L 313.109375 158.140625 C 312.363281 161.957031 309.21875 164.761719 304.804688 164.761719 Z M 298.746094 153.050781 L 310.15625 153.050781 C 309.855469 149.761719 307.609375 147.925781 304.429688 147.925781 C 301.625 147.925781 299.042969 149.945312 298.746094 153.050781 Z M 325.027344 145.457031 L 325.886719 145.457031 L 325.886719 148.449219 L 324.355469 148.449219 C 320.351562 148.449219 319.265625 151.78125 319.265625 154.808594 L 319.265625 164.535156 L 316.199219 164.535156 L 316.199219 145.457031 L 318.855469 145.457031 L 319.265625 148.339844 C 320.164062 146.878906 321.625 145.457031 325.027344 145.457031 Z M 177.421875 200.925781 C 169.902344 200.925781 165.191406 195.613281 165.191406 187.605469 C 165.191406 179.675781 170.089844 174.289062 177.683594 174.289062 C 183.484375 174.289062 187.710938 177.65625 188.683594 183.078125 L 185.242188 183.078125 C 184.230469 179.449219 181.464844 177.28125 177.535156 177.28125 C 172.035156 177.28125 168.519531 181.546875 168.519531 187.605469 C 168.519531 193.628906 171.886719 197.929688 177.386719 197.929688 C 181.425781 197.929688 184.230469 195.800781 185.203125 192.132812 L 188.644531 192.132812 C 187.671875 197.558594 183.335938 200.925781 177.421875 200.925781 Z M 200.171875 200.925781 C 194.597656 200.925781 190.707031 196.957031 190.707031 191.160156 C 190.707031 185.363281 194.597656 181.394531 200.171875 181.394531 C 205.746094 181.394531 209.636719 185.363281 209.636719 191.160156 C 209.636719 196.957031 205.746094 200.925781 200.171875 200.925781 Z M 200.171875 198.191406 C 203.949219 198.191406 206.492188 195.238281 206.492188 191.160156 C 206.492188 187.082031 203.949219 184.128906 200.171875 184.128906 C 196.390625 184.128906 193.847656 187.082031 193.847656 191.160156 C 193.847656 195.238281 196.390625 198.191406 200.171875 198.191406 Z M 233.691406 181.394531 C 237.65625 181.394531 240.910156 183.679688 240.910156 189.699219 L 240.910156 200.699219 L 237.84375 200.699219 L 237.84375 189.886719 C 237.84375 186.148438 236.199219 184.203125 233.316406 184.203125 C 230.136719 184.203125 228.191406 186.597656 228.191406 190.488281 L 228.191406 200.699219 L 225.125 200.699219 L 225.125 189.886719 C 225.125 186.148438 223.441406 184.203125 220.523438 184.203125 C 217.378906 184.203125 215.472656 186.820312 215.472656 190.636719 L 215.472656 200.699219 L 212.40625 200.699219 L 212.40625 181.621094 L 215.0625 181.621094 L 215.472656 184.238281 C 216.480469 182.855469 218.089844 181.394531 221.046875 181.394531 C 223.703125 181.394531 225.984375 182.59375 227.070312 185.023438 C 228.230469 182.96875 230.285156 181.394531 233.691406 181.394531 Z M 265.382812 181.394531 C 269.347656 181.394531 272.605469 183.679688 272.605469 189.699219 L 272.605469 200.699219 L 269.535156 200.699219 L 269.535156 189.886719 C 269.535156 186.148438 267.890625 184.203125 265.011719 184.203125 C 261.832031 184.203125 259.886719 186.597656 259.886719 190.488281 L 259.886719 200.699219 L 256.816406 200.699219 L 256.816406 189.886719 C 256.816406 186.148438 255.132812 184.203125 252.214844 184.203125 C 249.074219 184.203125 247.164062 186.820312 247.164062 190.636719 L 247.164062 200.699219 L 244.097656 200.699219 L 244.097656 181.621094 L 246.753906 181.621094 L 247.164062 184.238281 C 248.175781 182.855469 249.785156 181.394531 252.738281 181.394531 C 255.394531 181.394531 257.675781 182.59375 258.761719 185.023438 C 259.921875 182.96875 261.980469 181.394531 265.382812 181.394531 Z M 289.144531 191.160156 L 289.144531 181.621094 L 292.214844 181.621094 L 292.214844 200.699219 L 289.558594 200.699219 L 289.144531 198.15625 C 288.023438 199.578125 286.191406 200.925781 283.046875 200.925781 C 278.859375 200.925781 275.527344 198.566406 275.527344 192.246094 L 275.527344 181.621094 L 278.597656 181.621094 L 278.597656 192.058594 C 278.597656 196.023438 280.390625 198.117188 283.570312 198.117188 C 287.050781 198.117188 289.144531 195.460938 289.144531 191.160156 Z M 305 181.394531 C 309.300781 181.394531 312.707031 183.753906 312.707031 190.074219 L 312.707031 200.699219 L 309.636719 200.699219 L 309.636719 190.261719 C 309.636719 186.296875 307.804688 184.203125 304.476562 184.203125 C 300.882812 184.203125 298.714844 186.859375 298.714844 191.160156 L 298.714844 200.699219 L 295.648438 200.699219 L 295.648438 181.621094 L 298.304688 181.621094 L 298.714844 184.203125 C 299.835938 182.742188 301.78125 181.394531 305 181.394531 Z M 317.441406 178.402344 C 316.316406 178.402344 315.457031 177.582031 315.457031 176.421875 C 315.457031 175.261719 316.316406 174.4375 317.441406 174.4375 C 318.5625 174.4375 319.421875 175.261719 319.421875 176.421875 C 319.421875 177.582031 318.5625 178.402344 317.441406 178.402344 Z M 315.871094 200.699219 L 315.871094 181.621094 L 318.9375 181.621094 L 318.9375 200.699219 Z M 323.8125 195.722656 L 323.8125 184.425781 L 320.371094 184.425781 L 320.371094 181.621094 L 323.8125 181.621094 L 323.8125 176.269531 L 326.878906 176.269531 L 326.878906 181.621094 L 331.816406 181.621094 L 331.816406 184.425781 L 326.878906 184.425781 L 326.878906 195.6875 C 326.878906 197.296875 327.441406 197.894531 329.085938 197.894531 L 332.117188 197.894531 L 332.117188 200.699219 L 328.789062 200.699219 C 325.121094 200.699219 323.8125 199.089844 323.8125 195.722656 Z M 339.5625 200.8125 L 332.121094 181.621094 L 335.375 181.621094 L 341.246094 196.847656 L 346.933594 181.621094 L 350.1875 181.621094 L 341.398438 203.917969 C 340.199219 206.984375 339.488281 208.179688 336.796875 208.179688 L 333.128906 208.179688 L 333.128906 205.375 L 335.859375 205.375 C 337.617188 205.375 337.917969 204.925781 338.628906 203.132812 Z M 166.164062 236.863281 L 166.164062 210.675781 L 176.226562 210.675781 C 181.464844 210.675781 184.90625 213.816406 184.90625 218.71875 C 184.90625 223.621094 181.464844 226.800781 176.226562 226.800781 L 169.417969 226.800781 L 169.417969 236.863281 Z M 175.964844 213.667969 L 169.417969 213.667969 L 169.417969 223.804688 L 175.925781 223.804688 C 179.367188 223.804688 181.574219 221.824219 181.574219 218.71875 C 181.574219 215.613281 179.40625 213.667969 175.964844 213.667969 Z M 196.007812 217.785156 L 196.867188 217.785156 L 196.867188 220.777344 L 195.332031 220.777344 C 191.332031 220.777344 190.246094 224.105469 190.246094 227.136719 L 190.246094 236.863281 L 187.179688 236.863281 L 187.179688 217.785156 L 189.835938 217.785156 L 190.246094 220.664062 C 191.144531 219.203125 192.601562 217.785156 196.007812 217.785156 Z M 206.472656 237.085938 C 200.898438 237.085938 197.007812 233.121094 197.007812 227.324219 C 197.007812 221.523438 200.898438 217.558594 206.472656 217.558594 C 212.046875 217.558594 215.9375 221.523438 215.9375 227.324219 C 215.9375 233.121094 212.046875 237.085938 206.472656 237.085938 Z M 206.472656 234.355469 C 210.25 234.355469 212.796875 231.402344 212.796875 227.324219 C 212.796875 223.246094 210.25 220.289062 206.472656 220.289062 C 202.695312 220.289062 200.152344 223.246094 200.152344 227.324219 C 200.152344 231.402344 202.695312 234.355469 206.472656 234.355469 Z M 233.746094 220.703125 L 233.746094 210.675781 L 236.8125 210.675781 L 236.8125 236.863281 L 234.15625 236.863281 L 233.746094 233.792969 C 232.472656 235.554688 230.417969 237.085938 227.199219 237.085938 C 221.925781 237.085938 218.035156 233.53125 218.035156 227.324219 C 218.035156 221.488281 221.925781 217.558594 227.199219 217.558594 C 230.417969 217.558594 232.585938 218.867188 233.746094 220.703125 Z M 227.5 234.355469 C 231.238281 234.355469 233.785156 231.476562 233.785156 227.398438 C 233.785156 223.207031 231.238281 220.289062 227.5 220.289062 C 223.71875 220.289062 221.175781 223.171875 221.175781 227.324219 C 221.175781 231.476562 223.71875 234.355469 227.5 234.355469 Z M 253.601562 227.324219 L 253.601562 217.785156 L 256.667969 217.785156 L 256.667969 236.863281 L 254.011719 236.863281 L 253.601562 234.320312 C 252.476562 235.738281 250.644531 237.085938 247.5 237.085938 C 243.3125 237.085938 239.984375 234.730469 239.984375 228.40625 L 239.984375 217.785156 L 243.050781 217.785156 L 243.050781 228.222656 C 243.050781 232.1875 244.847656 234.28125 248.027344 234.28125 C 251.503906 234.28125 253.601562 231.625 253.601562 227.324219 Z M 268.667969 237.085938 C 263.09375 237.085938 259.425781 233.308594 259.425781 227.359375 C 259.425781 221.523438 263.207031 217.558594 268.742188 217.558594 C 273.417969 217.558594 276.375 220.175781 277.160156 224.367188 L 273.941406 224.367188 C 273.382812 221.824219 271.511719 220.289062 268.707031 220.289062 C 265.039062 220.289062 262.570312 223.207031 262.570312 227.359375 C 262.570312 231.511719 265.039062 234.355469 268.707031 234.355469 C 271.4375 234.355469 273.304688 232.785156 273.90625 230.351562 L 277.160156 230.351562 C 276.410156 234.46875 273.304688 237.085938 268.667969 237.085938 Z M 281.195312 231.886719 L 281.195312 220.589844 L 277.753906 220.589844 L 277.753906 217.785156 L 281.195312 217.785156 L 281.195312 212.433594 L 284.261719 212.433594 L 284.261719 217.785156 L 289.203125 217.785156 L 289.203125 220.589844 L 284.261719 220.589844 L 284.261719 231.847656 C 284.261719 233.457031 284.824219 234.058594 286.472656 234.058594 L 289.5 234.058594 L 289.5 236.863281 L 286.171875 236.863281 C 282.503906 236.863281 281.195312 235.253906 281.195312 231.886719 Z M 290.625 230.578125 L 293.769531 230.578125 C 293.878906 232.820312 295.863281 234.46875 299.042969 234.46875 C 301.734375 234.46875 303.644531 233.308594 303.644531 231.550781 C 303.644531 229.15625 301.550781 228.96875 298.707031 228.632812 C 294.441406 228.109375 291.035156 227.25 291.035156 223.28125 C 291.035156 219.804688 294.214844 217.523438 298.519531 217.558594 C 302.859375 217.597656 306 219.617188 306.300781 223.582031 L 303.15625 223.582031 C 302.933594 221.636719 301.136719 220.175781 298.519531 220.175781 C 295.863281 220.175781 294.066406 221.300781 294.066406 223.058594 C 294.066406 225.152344 296.085938 225.414062 298.855469 225.75 C 303.195312 226.277344 306.675781 227.097656 306.675781 231.324219 C 306.675781 234.878906 303.269531 237.085938 299.042969 237.085938 C 294.105469 237.085938 290.699219 234.765625 290.625 230.578125 Z M 290.625 230.578125 " fill-opacity="1" fill-rule="nonzero"/></g></svg>