<svg xmlns="http://www.w3.org/2000/svg" xmlns:xlink="http://www.w3.org/1999/xlink" width="500" zoomAndPan="magnify" viewBox="0 0 375 374.999991" height="500" preserveAspectRatio="xMidYMid meet" version="1.0"><defs><clipPath id="03237b4171"><path d="M 165.171875 138.351562 L 350.421875 138.351562 L 350.421875 237.351562 L 165.171875 237.351562 Z M 165.171875 138.351562 " clip-rule="nonzero"/></clipPath></defs><rect x="-37.5" width="450" fill="#ffffff" y="-37.499999" height="449.999989" fill-opacity="1"/><rect x="-37.5" width="450" fill="#ffffff" y="-37.499999" height="449.999989" fill-opacity="1"/><path fill="#000000" d="M 79.773438 138.882812 L 77.75 163.863281 L 77.753906 163.867188 C 76.796875 163.75 75.828125 163.683594 74.835938 163.683594 C 73.605469 163.683594 72.394531 163.777344 71.214844 163.957031 L 70.066406 151.84375 C 70.03125 151.464844 70.328125 151.136719 70.710938 151.140625 L 72.78125 151.140625 L 71.78125 138.882812 C 71.75 138.507812 72.046875 138.183594 72.425781 138.183594 L 79.132812 138.183594 C 79.507812 138.183594 79.804688 138.507812 79.773438 138.882812 Z M 62.851562 140.125 C 62.75 139.761719 62.359375 139.558594 62.007812 139.6875 L 55.703125 141.984375 C 55.351562 142.113281 55.183594 142.519531 55.339844 142.863281 L 60.464844 154.035156 L 58.519531 154.738281 C 58.160156 154.867188 57.988281 155.28125 58.15625 155.625 L 63.378906 166.617188 C 65.273438 165.574219 67.324219 164.789062 69.492188 164.292969 Z M 47.371094 147.082031 L 61.875 167.515625 L 61.878906 167.519531 C 60.039062 168.714844 58.375 170.15625 56.933594 171.800781 L 48.261719 163.253906 C 47.988281 162.988281 48.007812 162.542969 48.300781 162.296875 L 49.886719 160.972656 L 41.25 152.222656 C 40.984375 151.957031 41.003906 151.515625 41.292969 151.273438 L 46.429688 146.960938 C 46.722656 146.71875 47.152344 146.773438 47.371094 147.082031 Z M 35.207031 158.910156 C 34.898438 158.695312 34.46875 158.792969 34.277344 159.117188 L 30.925781 164.925781 C 30.738281 165.253906 30.867188 165.671875 31.207031 165.832031 L 42.316406 171.097656 L 41.277344 172.890625 C 41.085938 173.21875 41.222656 173.644531 41.570312 173.800781 L 52.640625 178.863281 C 53.441406 176.804688 54.511719 174.886719 55.820312 173.152344 Z M 27.023438 174.703125 C 27.085938 174.328125 27.453125 174.09375 27.820312 174.1875 L 52.0625 180.519531 C 51.433594 182.566406 51.082031 184.734375 51.035156 186.976562 L 38.898438 186.003906 C 38.515625 185.972656 38.246094 185.621094 38.3125 185.246094 L 38.675781 183.210938 L 26.4375 182.0625 C 26.0625 182.027344 25.792969 181.679688 25.859375 181.304688 L 27.019531 174.699219 Z M 26.105469 191.074219 C 25.730469 191.109375 25.464844 191.457031 25.527344 191.828125 L 26.695312 198.4375 C 26.761719 198.808594 27.128906 199.046875 27.492188 198.949219 L 39.386719 195.84375 L 39.742188 197.878906 C 39.808594 198.253906 40.183594 198.492188 40.550781 198.390625 L 52.28125 195.152344 C 51.589844 193.117188 51.164062 190.96875 51.050781 188.730469 L 26.109375 191.074219 Z M 29.988281 208.433594 C 29.796875 208.105469 29.925781 207.6875 30.269531 207.523438 L 52.902344 196.792969 C 53.765625 198.820312 54.90625 200.707031 56.265625 202.398438 L 46.347656 209.457031 C 46.039062 209.679688 45.601562 209.582031 45.414062 209.253906 L 44.382812 207.460938 L 34.269531 214.449219 C 33.957031 214.667969 33.53125 214.570312 33.339844 214.242188 Z M 57.410156 203.726562 L 39.804688 221.5625 C 39.542969 221.828125 39.5625 222.269531 39.851562 222.511719 L 44.988281 226.824219 C 45.277344 227.066406 45.714844 227.007812 45.933594 226.703125 L 53.046875 216.675781 L 54.628906 218.011719 C 54.917969 218.257812 55.359375 218.195312 55.578125 217.886719 L 62.484375 207.867188 C 60.609375 206.726562 58.90625 205.328125 57.414062 203.734375 L 57.414062 203.726562 Z M 53.933594 232.367188 C 53.578125 232.238281 53.410156 231.832031 53.566406 231.492188 L 53.570312 231.492188 L 64.015625 208.710938 C 65.933594 209.691406 68.007812 210.425781 70.1875 210.855469 L 67.125 222.636719 C 67.03125 223.003906 66.636719 223.210938 66.28125 223.082031 L 64.335938 222.367188 L 61.078125 234.226562 C 60.980469 234.589844 60.589844 234.789062 60.234375 234.660156 Z M 71.917969 211.128906 C 71.917969 211.128906 71.914062 211.128906 71.914062 211.128906 Z M 71.917969 211.128906 L 69.894531 236.113281 C 69.863281 236.488281 70.160156 236.8125 70.535156 236.8125 L 77.242188 236.8125 C 77.621094 236.8125 77.917969 236.488281 77.886719 236.113281 L 76.886719 223.855469 L 78.957031 223.855469 C 79.339844 223.863281 79.640625 223.53125 79.605469 223.152344 L 78.453125 211.039062 C 77.273438 211.21875 76.0625 211.3125 74.832031 211.3125 C 73.84375 211.3125 72.875 211.246094 71.917969 211.128906 Z M 96.101562 143.503906 C 96.257812 143.160156 96.089844 142.753906 95.734375 142.625 L 89.433594 140.332031 C 89.078125 140.203125 88.691406 140.402344 88.589844 140.765625 L 85.335938 152.625 L 83.390625 151.910156 C 83.03125 151.78125 82.640625 151.988281 82.542969 152.355469 L 79.480469 164.132812 C 81.660156 164.566406 83.734375 165.300781 85.65625 166.28125 L 96.101562 143.5 Z M 109.863281 153.429688 L 92.257812 171.269531 L 92.253906 171.261719 C 90.765625 169.667969 89.0625 168.269531 87.1875 167.128906 L 94.09375 157.109375 C 94.3125 156.796875 94.75 156.738281 95.042969 156.984375 L 96.625 158.316406 L 103.738281 148.289062 C 103.957031 147.984375 104.394531 147.925781 104.683594 148.171875 L 109.820312 152.480469 C 110.109375 152.726562 110.128906 153.164062 109.867188 153.429688 Z M 119.402344 167.46875 C 119.742188 167.304688 119.871094 166.886719 119.683594 166.5625 L 116.328125 160.75 C 116.140625 160.421875 115.714844 160.328125 115.398438 160.542969 L 105.285156 167.535156 L 104.257812 165.742188 C 104.066406 165.410156 103.632812 165.316406 103.324219 165.539062 L 93.402344 172.59375 C 94.765625 174.289062 95.90625 176.171875 96.765625 178.203125 Z M 122.972656 176.558594 L 124.136719 183.167969 L 124.140625 183.167969 C 124.207031 183.542969 123.941406 183.890625 123.5625 183.925781 L 98.617188 186.269531 C 98.503906 184.03125 98.078125 181.882812 97.386719 179.847656 L 109.121094 176.609375 C 109.484375 176.507812 109.859375 176.746094 109.929688 177.121094 L 110.28125 179.15625 L 122.175781 176.050781 C 122.539062 175.953125 122.910156 176.191406 122.976562 176.5625 Z M 121.84375 200.804688 C 122.210938 200.902344 122.578125 200.664062 122.644531 200.289062 L 123.808594 193.6875 C 123.871094 193.3125 123.605469 192.964844 123.230469 192.929688 L 110.992188 191.78125 L 111.355469 189.746094 C 111.421875 189.371094 111.152344 189.019531 110.769531 188.988281 L 98.632812 188.015625 C 98.582031 190.257812 98.230469 192.425781 97.605469 194.472656 L 121.847656 200.800781 L 121.847656 200.804688 Z M 115.386719 215.875 C 115.199219 216.199219 114.769531 216.296875 114.460938 216.082031 L 114.464844 216.078125 L 93.84375 201.835938 C 95.15625 200.105469 96.226562 198.1875 97.027344 196.128906 L 108.097656 201.191406 C 108.445312 201.351562 108.578125 201.773438 108.386719 202.101562 L 107.347656 203.894531 L 118.457031 209.160156 C 118.796875 209.320312 118.929688 209.738281 118.742188 210.066406 L 115.390625 215.875 Z M 87.789062 207.476562 L 102.292969 227.914062 C 102.511719 228.222656 102.945312 228.277344 103.234375 228.035156 L 108.371094 223.722656 C 108.660156 223.476562 108.679688 223.039062 108.417969 222.773438 L 99.777344 214.023438 L 101.367188 212.699219 C 101.65625 212.453125 101.675781 212.007812 101.40625 211.742188 L 92.730469 203.195312 C 91.289062 204.839844 89.625 206.28125 87.789062 207.476562 Z M 87.664062 235.304688 C 87.308594 235.433594 86.917969 235.234375 86.820312 234.871094 L 80.179688 210.703125 C 82.34375 210.207031 84.398438 209.417969 86.292969 208.378906 L 91.515625 219.367188 C 91.679688 219.714844 91.507812 220.125 91.152344 220.253906 L 89.203125 220.957031 L 94.332031 232.132812 C 94.488281 232.476562 94.320312 232.882812 93.964844 233.011719 Z M 87.664062 235.304688 " fill-opacity="1" fill-rule="evenodd"/><g clip-path="url(#03237b4171)"><path fill="#000000" d="M 174.546875 164.582031 L 166.164062 164.582031 L 166.164062 138.351562 L 174.546875 138.351562 C 182.742188 138.351562 187.71875 143.597656 187.71875 151.464844 C 187.71875 159.300781 182.742188 164.582031 174.546875 164.582031 Z M 169.417969 141.347656 L 169.417969 161.585938 L 174.546875 161.585938 C 180.90625 161.585938 184.386719 157.574219 184.386719 151.464844 C 184.386719 145.320312 180.90625 141.347656 174.546875 141.347656 Z M 199.414062 164.808594 C 193.6875 164.808594 189.945312 160.875 189.945312 155.027344 C 189.945312 149.21875 193.613281 145.246094 199.003906 145.246094 C 204.390625 145.246094 207.910156 148.65625 208.058594 154.316406 C 208.058594 154.726562 208.019531 155.175781 207.984375 155.625 L 193.164062 155.625 L 193.164062 155.890625 C 193.277344 159.523438 195.558594 162.074219 199.191406 162.074219 C 201.882812 162.074219 203.980469 160.648438 204.617188 158.175781 L 207.722656 158.175781 C 206.972656 161.996094 203.828125 164.808594 199.414062 164.808594 Z M 193.351562 153.078125 L 204.765625 153.078125 C 204.464844 149.78125 202.222656 147.945312 199.039062 147.945312 C 196.234375 147.945312 193.652344 149.96875 193.351562 153.078125 Z M 215.210938 164.582031 L 208.0625 145.46875 L 211.355469 145.46875 L 217.117188 161.097656 L 222.84375 145.46875 L 226.0625 145.46875 L 218.914062 164.582031 Z M 235.558594 164.808594 C 229.832031 164.808594 226.089844 160.875 226.089844 155.027344 C 226.089844 149.21875 229.757812 145.246094 235.148438 145.246094 C 240.535156 145.246094 244.054688 148.65625 244.203125 154.316406 C 244.203125 154.726562 244.164062 155.175781 244.128906 155.625 L 229.308594 155.625 L 229.308594 155.890625 C 229.421875 159.523438 231.703125 162.074219 235.332031 162.074219 C 238.027344 162.074219 240.125 160.648438 240.761719 158.175781 L 243.867188 158.175781 C 243.117188 161.996094 239.972656 164.808594 235.558594 164.808594 Z M 229.496094 153.078125 L 240.910156 153.078125 C 240.609375 149.78125 238.363281 147.945312 235.183594 147.945312 C 232.378906 147.945312 229.796875 149.96875 229.496094 153.078125 Z M 246.957031 164.582031 L 246.957031 138.351562 L 250.023438 138.351562 L 250.023438 164.582031 Z M 262.273438 164.808594 C 256.699219 164.808594 252.804688 160.835938 252.804688 155.027344 C 252.804688 149.21875 256.699219 145.246094 262.273438 145.246094 C 267.851562 145.246094 271.742188 149.21875 271.742188 155.027344 C 271.742188 160.835938 267.851562 164.808594 262.273438 164.808594 Z M 262.273438 162.074219 C 266.054688 162.074219 268.597656 159.113281 268.597656 155.027344 C 268.597656 150.941406 266.054688 147.980469 262.273438 147.980469 C 258.496094 147.980469 255.949219 150.941406 255.949219 155.027344 C 255.949219 159.113281 258.496094 162.074219 262.273438 162.074219 Z M 284.128906 145.246094 C 289.40625 145.246094 293.296875 148.804688 293.296875 155.027344 C 293.296875 160.875 289.40625 164.808594 284.128906 164.808594 C 280.910156 164.808594 278.742188 163.496094 277.582031 161.660156 L 277.582031 172.078125 L 274.511719 172.078125 L 274.511719 145.46875 L 277.167969 145.46875 L 277.582031 148.542969 C 278.851562 146.78125 280.910156 145.246094 284.128906 145.246094 Z M 283.828125 162.074219 C 287.609375 162.074219 290.152344 159.1875 290.152344 155.027344 C 290.152344 150.867188 287.609375 147.980469 283.828125 147.980469 C 280.085938 147.980469 277.542969 150.867188 277.542969 154.953125 C 277.542969 159.148438 280.085938 162.074219 283.828125 162.074219 Z M 304.851562 164.808594 C 299.125 164.808594 295.382812 160.875 295.382812 155.027344 C 295.382812 149.21875 299.050781 145.246094 304.4375 145.246094 C 309.828125 145.246094 313.34375 148.65625 313.496094 154.316406 C 313.496094 154.726562 313.457031 155.175781 313.417969 155.625 L 298.601562 155.625 L 298.601562 155.890625 C 298.710938 159.523438 300.996094 162.074219 304.625 162.074219 C 307.320312 162.074219 309.414062 160.648438 310.050781 158.175781 L 313.15625 158.175781 C 312.410156 161.996094 309.265625 164.808594 304.851562 164.808594 Z M 298.789062 153.078125 L 310.199219 153.078125 C 309.902344 149.78125 307.65625 147.945312 304.476562 147.945312 C 301.667969 147.945312 299.085938 149.96875 298.789062 153.078125 Z M 325.078125 145.46875 L 325.9375 145.46875 L 325.9375 148.46875 L 324.40625 148.46875 C 320.402344 148.46875 319.316406 151.804688 319.316406 154.839844 L 319.316406 164.582031 L 316.246094 164.582031 L 316.246094 145.46875 L 318.902344 145.46875 L 319.316406 148.355469 C 320.214844 146.894531 321.671875 145.46875 325.078125 145.46875 Z M 177.425781 201.035156 C 169.90625 201.035156 165.191406 195.714844 165.191406 187.695312 C 165.191406 179.75 170.09375 174.351562 177.6875 174.351562 C 183.488281 174.351562 187.71875 177.726562 188.691406 183.160156 L 185.25 183.160156 C 184.238281 179.523438 181.46875 177.351562 177.539062 177.351562 C 172.039062 177.351562 168.519531 181.621094 168.519531 187.695312 C 168.519531 193.726562 171.890625 198.039062 177.390625 198.039062 C 181.429688 198.039062 184.238281 195.902344 185.210938 192.226562 L 188.652344 192.226562 C 187.679688 197.664062 183.339844 201.035156 177.425781 201.035156 Z M 200.183594 201.035156 C 194.605469 201.035156 190.714844 197.0625 190.714844 191.253906 C 190.714844 185.445312 194.605469 181.472656 200.183594 181.472656 C 205.757812 181.472656 209.648438 185.445312 209.648438 191.253906 C 209.648438 197.0625 205.757812 201.035156 200.183594 201.035156 Z M 200.183594 198.300781 C 203.960938 198.300781 206.507812 195.339844 206.507812 191.253906 C 206.507812 187.167969 203.960938 184.207031 200.183594 184.207031 C 196.402344 184.207031 193.855469 187.167969 193.855469 191.253906 C 193.855469 195.339844 196.402344 198.300781 200.183594 198.300781 Z M 233.710938 181.472656 C 237.679688 181.472656 240.933594 183.757812 240.933594 189.792969 L 240.933594 200.808594 L 237.867188 200.808594 L 237.867188 189.980469 C 237.867188 186.230469 236.21875 184.285156 233.339844 184.285156 C 230.15625 184.285156 228.210938 186.683594 228.210938 190.578125 L 228.210938 200.808594 L 225.144531 200.808594 L 225.144531 189.980469 C 225.144531 186.230469 223.457031 184.285156 220.539062 184.285156 C 217.398438 184.285156 215.488281 186.90625 215.488281 190.730469 L 215.488281 200.808594 L 212.417969 200.808594 L 212.417969 181.699219 L 215.078125 181.699219 L 215.488281 184.320312 C 216.5 182.933594 218.109375 181.472656 221.0625 181.472656 C 223.722656 181.472656 226.003906 182.671875 227.089844 185.109375 C 228.25 183.046875 230.308594 181.472656 233.710938 181.472656 Z M 265.414062 181.472656 C 269.382812 181.472656 272.636719 183.757812 272.636719 189.792969 L 272.636719 200.808594 L 269.570312 200.808594 L 269.570312 189.980469 C 269.570312 186.230469 267.921875 184.285156 265.042969 184.285156 C 261.859375 184.285156 259.914062 186.683594 259.914062 190.578125 L 259.914062 200.808594 L 256.847656 200.808594 L 256.847656 189.980469 C 256.847656 186.230469 255.164062 184.285156 252.242188 184.285156 C 249.101562 184.285156 247.191406 186.90625 247.191406 190.730469 L 247.191406 200.808594 L 244.121094 200.808594 L 244.121094 181.699219 L 246.78125 181.699219 L 247.191406 184.320312 C 248.203125 182.933594 249.8125 181.472656 252.765625 181.472656 C 255.425781 181.472656 257.707031 182.671875 258.792969 185.109375 C 259.953125 183.046875 262.011719 181.472656 265.414062 181.472656 Z M 289.183594 191.253906 L 289.183594 181.699219 L 292.253906 181.699219 L 292.253906 200.808594 L 289.597656 200.808594 L 289.183594 198.261719 C 288.0625 199.6875 286.230469 201.035156 283.085938 201.035156 C 278.894531 201.035156 275.5625 198.675781 275.5625 192.339844 L 275.5625 181.699219 L 278.632812 181.699219 L 278.632812 192.152344 C 278.632812 196.125 280.429688 198.222656 283.609375 198.222656 C 287.089844 198.222656 289.183594 195.5625 289.183594 191.253906 Z M 305.042969 181.472656 C 309.347656 181.472656 312.753906 183.832031 312.753906 190.167969 L 312.753906 200.808594 L 309.683594 200.808594 L 309.683594 190.355469 C 309.683594 186.382812 307.851562 184.285156 304.519531 184.285156 C 300.925781 184.285156 298.757812 186.945312 298.757812 191.253906 L 298.757812 200.808594 L 295.6875 200.808594 L 295.6875 181.699219 L 298.34375 181.699219 L 298.757812 184.285156 C 299.878906 182.820312 301.824219 181.472656 305.042969 181.472656 Z M 317.488281 178.472656 C 316.367188 178.472656 315.503906 177.648438 315.503906 176.488281 C 315.503906 175.328125 316.367188 174.503906 317.488281 174.503906 C 318.609375 174.503906 319.472656 175.328125 319.472656 176.488281 C 319.472656 177.648438 318.609375 178.472656 317.488281 178.472656 Z M 315.917969 200.808594 L 315.917969 181.699219 L 318.984375 181.699219 L 318.984375 200.808594 Z M 323.863281 195.824219 L 323.863281 184.507812 L 320.421875 184.507812 L 320.421875 181.699219 L 323.863281 181.699219 L 323.863281 176.339844 L 326.929688 176.339844 L 326.929688 181.699219 L 331.871094 181.699219 L 331.871094 184.507812 L 326.929688 184.507812 L 326.929688 195.789062 C 326.929688 197.398438 327.492188 198 329.140625 198 L 332.171875 198 L 332.171875 200.808594 L 328.839844 200.808594 C 325.171875 200.808594 323.863281 199.199219 323.863281 195.824219 Z M 339.621094 200.921875 L 332.171875 181.699219 L 335.429688 181.699219 L 341.304688 196.949219 L 346.992188 181.699219 L 350.246094 181.699219 L 341.453125 204.035156 C 340.253906 207.105469 339.542969 208.304688 336.851562 208.304688 L 333.183594 208.304688 L 333.183594 205.496094 L 335.914062 205.496094 C 337.671875 205.496094 337.972656 205.046875 338.683594 203.246094 Z M 166.164062 237.039062 L 166.164062 210.804688 L 176.230469 210.804688 C 181.46875 210.804688 184.910156 213.953125 184.910156 218.863281 C 184.910156 223.769531 181.46875 226.957031 176.230469 226.957031 L 169.417969 226.957031 L 169.417969 237.039062 Z M 175.96875 213.800781 L 169.417969 213.800781 L 169.417969 223.957031 L 175.929688 223.957031 C 179.375 223.957031 181.582031 221.972656 181.582031 218.863281 C 181.582031 215.75 179.410156 213.800781 175.96875 213.800781 Z M 196.015625 217.925781 L 196.878906 217.925781 L 196.878906 220.921875 L 195.34375 220.921875 C 191.339844 220.921875 190.253906 224.257812 190.253906 227.292969 L 190.253906 237.039062 L 187.183594 237.039062 L 187.183594 217.925781 L 189.84375 217.925781 L 190.253906 220.808594 C 191.152344 219.347656 192.609375 217.925781 196.015625 217.925781 Z M 206.488281 237.261719 C 200.910156 237.261719 197.019531 233.289062 197.019531 227.480469 C 197.019531 221.671875 200.910156 217.699219 206.488281 217.699219 C 212.0625 217.699219 215.953125 221.671875 215.953125 227.480469 C 215.953125 233.289062 212.0625 237.261719 206.488281 237.261719 Z M 206.488281 234.527344 C 210.265625 234.527344 212.8125 231.566406 212.8125 227.480469 C 212.8125 223.394531 210.265625 220.4375 206.488281 220.4375 C 202.707031 220.4375 200.164062 223.394531 200.164062 227.480469 C 200.164062 231.566406 202.707031 234.527344 206.488281 234.527344 Z M 233.769531 220.847656 L 233.769531 210.804688 L 236.835938 210.804688 L 236.835938 237.039062 L 234.179688 237.039062 L 233.769531 233.964844 C 232.496094 235.726562 230.4375 237.261719 227.21875 237.261719 C 221.941406 237.261719 218.050781 233.703125 218.050781 227.480469 C 218.050781 221.636719 221.941406 217.699219 227.21875 217.699219 C 230.4375 217.699219 232.609375 219.011719 233.769531 220.847656 Z M 227.519531 234.527344 C 231.261719 234.527344 233.804688 231.640625 233.804688 227.554688 C 233.804688 223.359375 231.261719 220.4375 227.519531 220.4375 C 223.738281 220.4375 221.195312 223.320312 221.195312 227.480469 C 221.195312 231.640625 223.738281 234.527344 227.519531 234.527344 Z M 253.628906 227.480469 L 253.628906 217.925781 L 256.695312 217.925781 L 256.695312 237.039062 L 254.039062 237.039062 L 253.628906 234.488281 C 252.503906 235.914062 250.671875 237.261719 247.527344 237.261719 C 243.335938 237.261719 240.007812 234.902344 240.007812 228.566406 L 240.007812 217.925781 L 243.074219 217.925781 L 243.074219 228.378906 C 243.074219 232.351562 244.871094 234.453125 248.050781 234.453125 C 251.53125 234.453125 253.628906 231.789062 253.628906 227.480469 Z M 268.699219 237.261719 C 263.125 237.261719 259.457031 233.476562 259.457031 227.519531 C 259.457031 221.671875 263.238281 217.699219 268.773438 217.699219 C 273.453125 217.699219 276.410156 220.324219 277.195312 224.519531 L 273.976562 224.519531 C 273.414062 221.972656 271.542969 220.4375 268.738281 220.4375 C 265.070312 220.4375 262.601562 223.359375 262.601562 227.519531 C 262.601562 231.679688 265.070312 234.527344 268.738281 234.527344 C 271.46875 234.527344 273.339844 232.953125 273.941406 230.515625 L 277.195312 230.515625 C 276.445312 234.640625 273.339844 237.261719 268.699219 237.261719 Z M 281.234375 232.054688 L 281.234375 220.734375 L 277.789062 220.734375 L 277.789062 217.925781 L 281.234375 217.925781 L 281.234375 212.566406 L 284.300781 212.566406 L 284.300781 217.925781 L 289.242188 217.925781 L 289.242188 220.734375 L 284.300781 220.734375 L 284.300781 232.015625 C 284.300781 233.628906 284.863281 234.226562 286.507812 234.226562 L 289.539062 234.226562 L 289.539062 237.039062 L 286.210938 237.039062 C 282.542969 237.039062 281.234375 235.425781 281.234375 232.054688 Z M 290.664062 230.742188 L 293.808594 230.742188 C 293.921875 232.988281 295.902344 234.640625 299.085938 234.640625 C 301.78125 234.640625 303.6875 233.476562 303.6875 231.714844 C 303.6875 229.316406 301.59375 229.128906 298.75 228.792969 C 294.480469 228.269531 291.078125 227.40625 291.078125 223.433594 C 291.078125 219.949219 294.257812 217.664062 298.5625 217.699219 C 302.902344 217.738281 306.046875 219.761719 306.34375 223.734375 L 303.203125 223.734375 C 302.976562 221.785156 301.179688 220.324219 298.5625 220.324219 C 295.902344 220.324219 294.109375 221.449219 294.109375 223.207031 C 294.109375 225.308594 296.128906 225.570312 298.898438 225.90625 C 303.238281 226.433594 306.71875 227.257812 306.71875 231.492188 C 306.71875 235.050781 303.3125 237.261719 299.085938 237.261719 C 294.144531 237.261719 290.738281 234.9375 290.664062 230.742188 Z M 290.664062 230.742188 " fill-opacity="1" fill-rule="nonzero"/></g></svg>