<svg xmlns="http://www.w3.org/2000/svg" xmlns:xlink="http://www.w3.org/1999/xlink" width="500" zoomAndPan="magnify" viewBox="0 0 375 374.999991" height="500" preserveAspectRatio="xMidYMid meet" version="1.0"><defs><clipPath id="e82d1bd6ca"><path d="M 154.84375 153.929688 L 353.59375 153.929688 L 353.59375 167.429688 L 154.84375 167.429688 Z M 154.84375 153.929688 " clip-rule="nonzero"/></clipPath></defs><path fill="#000000" d="M 102.359375 86.679688 L 100.707031 107.078125 L 100.710938 107.082031 C 99.929688 106.984375 99.136719 106.933594 98.328125 106.933594 C 97.324219 106.933594 96.335938 107.007812 95.371094 107.15625 L 94.429688 97.261719 C 94.402344 96.953125 94.648438 96.683594 94.957031 96.6875 L 96.648438 96.6875 L 95.835938 86.679688 C 95.808594 86.375 96.050781 86.109375 96.359375 86.109375 L 101.835938 86.109375 C 102.140625 86.109375 102.386719 86.371094 102.359375 86.679688 Z M 88.539062 87.691406 C 88.457031 87.394531 88.140625 87.230469 87.851562 87.335938 L 82.703125 89.210938 C 82.414062 89.316406 82.277344 89.648438 82.40625 89.925781 L 86.59375 99.054688 L 85.003906 99.628906 C 84.710938 99.734375 84.570312 100.070312 84.707031 100.351562 L 88.972656 109.328125 C 90.519531 108.476562 92.195312 107.832031 93.960938 107.429688 Z M 75.902344 93.371094 L 87.746094 110.0625 C 86.246094 111.039062 84.886719 112.21875 83.710938 113.558594 L 76.625 106.582031 C 76.402344 106.363281 76.417969 106 76.65625 105.800781 L 77.953125 104.714844 L 70.898438 97.574219 C 70.683594 97.355469 70.699219 96.996094 70.9375 96.796875 L 75.128906 93.273438 C 75.367188 93.074219 75.722656 93.121094 75.902344 93.371094 Z M 65.964844 103.035156 C 65.710938 102.859375 65.363281 102.9375 65.207031 103.203125 L 62.46875 107.945312 C 62.316406 108.214844 62.421875 108.554688 62.699219 108.6875 L 71.773438 112.988281 L 70.925781 114.449219 C 70.765625 114.71875 70.878906 115.066406 71.164062 115.195312 L 80.199219 119.328125 C 80.855469 117.648438 81.730469 116.078125 82.800781 114.664062 L 65.964844 103.03125 Z M 59.28125 115.929688 C 59.335938 115.625 59.632812 115.429688 59.933594 115.507812 L 79.730469 120.679688 C 79.214844 122.351562 78.929688 124.121094 78.890625 125.953125 L 68.980469 125.160156 C 68.667969 125.132812 68.445312 124.847656 68.5 124.539062 L 68.796875 122.878906 L 58.800781 121.941406 C 58.496094 121.910156 58.277344 121.625 58.332031 121.324219 L 59.28125 115.925781 Z M 58.535156 129.296875 C 58.226562 129.328125 58.007812 129.613281 58.0625 129.917969 L 59.015625 135.3125 C 59.066406 135.617188 59.371094 135.808594 59.667969 135.730469 L 69.378906 133.191406 L 69.667969 134.855469 C 69.722656 135.160156 70.03125 135.355469 70.328125 135.273438 L 79.910156 132.628906 C 79.34375 130.96875 78.996094 129.210938 78.902344 127.382812 L 58.535156 129.300781 Z M 61.703125 143.476562 C 61.546875 143.207031 61.652344 142.867188 61.933594 142.734375 L 80.417969 133.96875 C 81.121094 135.625 82.050781 137.164062 83.164062 138.546875 L 75.0625 144.3125 C 74.8125 144.492188 74.453125 144.414062 74.300781 144.144531 L 73.457031 142.679688 L 65.199219 148.390625 C 64.945312 148.566406 64.597656 148.488281 64.441406 148.21875 Z M 84.097656 139.632812 L 69.71875 154.199219 C 69.503906 154.414062 69.523438 154.773438 69.757812 154.972656 L 73.953125 158.492188 C 74.191406 158.691406 74.546875 158.644531 74.722656 158.394531 L 80.53125 150.207031 L 81.824219 151.296875 C 82.0625 151.496094 82.421875 151.449219 82.601562 151.195312 L 88.238281 143.011719 C 86.710938 142.082031 85.320312 140.941406 84.101562 139.636719 Z M 81.257812 163.019531 C 80.96875 162.914062 80.832031 162.585938 80.960938 162.304688 L 89.488281 143.699219 C 91.058594 144.503906 92.75 145.101562 94.53125 145.453125 L 92.03125 155.074219 C 91.953125 155.375 91.632812 155.542969 91.339844 155.4375 L 89.753906 154.855469 L 87.09375 164.539062 C 87.011719 164.835938 86.695312 165 86.40625 164.894531 Z M 95.945312 145.679688 C 95.945312 145.679688 95.941406 145.679688 95.941406 145.679688 Z M 95.945312 145.679688 L 94.292969 166.078125 C 94.265625 166.386719 94.507812 166.652344 94.816406 166.652344 L 100.292969 166.652344 C 100.601562 166.652344 100.84375 166.386719 100.816406 166.078125 L 100.003906 156.070312 L 101.695312 156.070312 C 102.003906 156.074219 102.25 155.804688 102.222656 155.496094 L 101.28125 145.605469 C 100.316406 145.75 99.328125 145.828125 98.324219 145.828125 C 97.519531 145.828125 96.726562 145.773438 95.945312 145.675781 Z M 115.695312 90.449219 C 115.824219 90.171875 115.683594 89.839844 115.394531 89.734375 L 110.25 87.863281 C 109.960938 87.757812 109.640625 87.921875 109.558594 88.214844 L 106.902344 97.898438 L 105.3125 97.316406 C 105.023438 97.210938 104.699219 97.378906 104.621094 97.679688 L 102.121094 107.300781 C 103.902344 107.652344 105.59375 108.25 107.164062 109.054688 Z M 126.933594 98.558594 L 112.554688 113.125 L 112.554688 113.121094 C 111.335938 111.816406 109.945312 110.675781 108.414062 109.746094 L 114.054688 101.5625 C 114.230469 101.308594 114.589844 101.257812 114.828125 101.460938 L 116.121094 102.550781 L 121.929688 94.359375 C 122.109375 94.109375 122.464844 94.0625 122.699219 94.261719 L 126.898438 97.78125 C 127.132812 97.980469 127.148438 98.339844 126.933594 98.558594 Z M 134.722656 110.023438 C 135 109.890625 135.105469 109.546875 134.953125 109.28125 L 132.210938 104.535156 C 132.058594 104.269531 131.710938 104.191406 131.453125 104.367188 L 123.195312 110.074219 L 122.355469 108.613281 C 122.199219 108.339844 121.84375 108.261719 121.589844 108.445312 L 113.488281 114.207031 C 114.605469 115.589844 115.53125 117.128906 116.238281 118.789062 Z M 137.636719 117.445312 L 138.589844 122.84375 C 138.644531 123.148438 138.429688 123.433594 138.121094 123.460938 L 117.75 125.375 C 117.65625 123.550781 117.308594 121.792969 116.742188 120.132812 L 126.324219 117.488281 C 126.625 117.402344 126.929688 117.597656 126.984375 117.90625 L 127.273438 119.566406 L 136.988281 117.03125 C 137.285156 116.949219 137.585938 117.144531 137.640625 117.449219 Z M 136.71875 137.246094 C 137.015625 137.324219 137.316406 137.132812 137.371094 136.824219 L 138.320312 131.433594 C 138.371094 131.128906 138.15625 130.84375 137.847656 130.8125 L 127.851562 129.878906 L 128.148438 128.214844 C 128.203125 127.90625 127.984375 127.621094 127.671875 127.597656 L 117.761719 126.800781 C 117.722656 128.632812 117.429688 130.402344 116.921875 132.074219 L 136.71875 137.242188 Z M 131.445312 149.550781 C 131.289062 149.816406 130.9375 149.894531 130.6875 149.722656 L 130.6875 149.71875 L 113.851562 138.089844 C 114.921875 136.675781 115.796875 135.105469 116.449219 133.425781 L 125.488281 137.558594 C 125.773438 137.691406 125.882812 138.035156 125.726562 138.304688 L 124.878906 139.765625 L 133.953125 144.066406 C 134.230469 144.199219 134.335938 144.542969 134.183594 144.808594 Z M 108.90625 142.695312 L 120.75 159.382812 C 120.929688 159.632812 121.28125 159.679688 121.519531 159.484375 L 125.714844 155.960938 C 125.949219 155.761719 125.964844 155.402344 125.75 155.183594 L 118.695312 148.042969 L 119.992188 146.957031 C 120.230469 146.757812 120.246094 146.394531 120.023438 146.179688 L 112.941406 139.199219 C 111.765625 140.542969 110.40625 141.71875 108.90625 142.695312 Z M 108.804688 165.417969 C 108.511719 165.523438 108.195312 165.359375 108.113281 165.0625 L 102.691406 145.328125 C 104.460938 144.925781 106.136719 144.28125 107.683594 143.429688 L 111.949219 152.40625 C 112.082031 152.6875 111.941406 153.023438 111.652344 153.128906 L 110.0625 153.703125 L 114.25 162.828125 C 114.375 163.109375 114.238281 163.441406 113.949219 163.546875 L 108.804688 165.421875 Z M 108.804688 165.417969 " fill-opacity="1" fill-rule="evenodd"/><path fill="#000000" d="M 293.945312 138.453125 C 287.1875 138.453125 282.410156 133.195312 282.410156 126.300781 C 282.410156 119.410156 287.1875 114.152344 293.945312 114.152344 C 300.703125 114.152344 305.34375 119.410156 305.34375 126.300781 C 305.34375 133.195312 300.636719 138.453125 293.945312 138.453125 Z M 292.855469 145.6875 C 298.316406 145.6875 302.957031 143.570312 305.890625 139.132812 C 306.4375 143.433594 309.578125 145.003906 313.535156 145.003906 L 316.675781 145.003906 L 316.675781 138.175781 L 315.308594 138.175781 C 313.058594 138.175781 312.511719 137.085938 312.511719 134.558594 L 312.511719 107.597656 L 305.277344 107.597656 L 305.277344 113.128906 C 302.820312 109.238281 298.179688 106.917969 292.855469 106.917969 C 283.367188 106.917969 274.632812 114.835938 274.632812 126.300781 C 274.632812 137.765625 283.367188 145.683594 292.855469 145.683594 Z M 255.585938 136.335938 C 255.585938 142.476562 259.410156 145.003906 263.984375 145.003906 L 272.785156 145.003906 L 272.785156 138.175781 L 266.371094 138.175781 C 263.710938 138.175781 263.164062 137.152344 263.164062 134.558594 L 263.164062 114.425781 L 272.785156 114.425781 L 272.785156 107.597656 L 263.164062 107.597656 L 263.164062 95.039062 L 255.585938 95.039062 Z M 221.117188 145.003906 L 228.695312 145.003906 L 228.695312 128.964844 L 231.21875 128.964844 L 244.121094 145.003906 L 253.675781 145.003906 L 237.226562 124.664062 L 249.855469 107.601562 L 241.324219 107.601562 L 231.015625 122.003906 L 228.695312 122.003906 L 228.695312 95.042969 L 221.117188 95.042969 Z M 196.546875 106.917969 C 185.96875 106.917969 177.230469 114.835938 177.230469 126.300781 C 177.230469 137.765625 185.96875 145.683594 196.546875 145.683594 C 207.125 145.683594 215.863281 137.765625 215.863281 126.300781 C 215.863281 114.835938 207.125 106.917969 196.546875 106.917969 Z M 196.546875 138.453125 C 189.789062 138.453125 185.011719 133.195312 185.011719 126.300781 C 185.011719 119.410156 189.789062 114.152344 196.546875 114.152344 C 203.304688 114.152344 208.082031 119.410156 208.082031 126.300781 C 208.082031 133.195312 203.304688 138.453125 196.546875 138.453125 Z M 196.546875 138.453125 " fill-opacity="1" fill-rule="nonzero"/><g clip-path="url(#e82d1bd6ca)"><path fill="#000000" d="M 158.222656 164.457031 L 154.9375 164.457031 L 154.9375 154.054688 L 158.222656 154.054688 C 161.429688 154.054688 163.378906 156.136719 163.378906 159.257812 C 163.378906 162.363281 161.429688 164.457031 158.222656 164.457031 Z M 156.214844 155.242188 L 156.214844 163.269531 L 158.222656 163.269531 C 160.710938 163.269531 162.074219 161.679688 162.074219 159.257812 C 162.074219 156.820312 160.710938 155.242188 158.222656 155.242188 Z M 167.960938 164.546875 C 165.71875 164.546875 164.253906 162.988281 164.253906 160.667969 C 164.253906 158.363281 165.6875 156.789062 167.800781 156.789062 C 169.910156 156.789062 171.289062 158.140625 171.347656 160.386719 C 171.347656 160.550781 171.332031 160.726562 171.316406 160.90625 L 165.511719 160.90625 L 165.511719 161.011719 C 165.558594 162.453125 166.453125 163.464844 167.875 163.464844 C 168.929688 163.464844 169.75 162.898438 170 161.917969 L 171.214844 161.917969 C 170.921875 163.433594 169.691406 164.546875 167.960938 164.546875 Z M 165.585938 159.894531 L 170.058594 159.894531 C 169.941406 158.589844 169.058594 157.859375 167.816406 157.859375 C 166.714844 157.859375 165.703125 158.664062 165.585938 159.894531 Z M 174.148438 164.457031 L 171.347656 156.878906 L 172.636719 156.878906 L 174.894531 163.078125 L 177.136719 156.878906 L 178.398438 156.878906 L 175.597656 164.457031 Z M 182.117188 164.546875 C 179.875 164.546875 178.410156 162.988281 178.410156 160.667969 C 178.410156 158.363281 179.84375 156.789062 181.957031 156.789062 C 184.066406 156.789062 185.445312 158.140625 185.503906 160.386719 C 185.503906 160.550781 185.488281 160.726562 185.472656 160.90625 L 179.667969 160.90625 L 179.667969 161.011719 C 179.714844 162.453125 180.609375 163.464844 182.03125 163.464844 C 183.085938 163.464844 183.90625 162.898438 184.15625 161.917969 L 185.371094 161.917969 C 185.078125 163.433594 183.847656 164.546875 182.117188 164.546875 Z M 179.742188 159.894531 L 184.214844 159.894531 C 184.097656 158.589844 183.214844 157.859375 181.972656 157.859375 C 180.871094 157.859375 179.859375 158.664062 179.742188 159.894531 Z M 186.582031 164.457031 L 186.582031 154.054688 L 187.785156 154.054688 L 187.785156 164.457031 Z M 192.582031 164.546875 C 190.398438 164.546875 188.871094 162.972656 188.871094 160.667969 C 188.871094 158.363281 190.398438 156.789062 192.582031 156.789062 C 194.765625 156.789062 196.289062 158.363281 196.289062 160.667969 C 196.289062 162.972656 194.765625 164.546875 192.582031 164.546875 Z M 192.582031 163.464844 C 194.0625 163.464844 195.058594 162.289062 195.058594 160.667969 C 195.058594 159.050781 194.0625 157.875 192.582031 157.875 C 191.101562 157.875 190.105469 159.050781 190.105469 160.667969 C 190.105469 162.289062 191.101562 163.464844 192.582031 163.464844 Z M 201.140625 156.789062 C 203.207031 156.789062 204.730469 158.203125 204.730469 160.667969 C 204.730469 162.988281 203.207031 164.546875 201.140625 164.546875 C 199.878906 164.546875 199.03125 164.027344 198.574219 163.300781 L 198.574219 167.429688 L 197.375 167.429688 L 197.375 156.878906 L 198.414062 156.878906 L 198.574219 158.097656 C 199.074219 157.398438 199.878906 156.789062 201.140625 156.789062 Z M 201.023438 163.464844 C 202.503906 163.464844 203.5 162.320312 203.5 160.667969 C 203.5 159.019531 202.503906 157.875 201.023438 157.875 C 199.558594 157.875 198.5625 159.019531 198.5625 160.640625 C 198.5625 162.304688 199.558594 163.464844 201.023438 163.464844 Z M 209.257812 164.546875 C 207.015625 164.546875 205.546875 162.988281 205.546875 160.667969 C 205.546875 158.363281 206.984375 156.789062 209.09375 156.789062 C 211.207031 156.789062 212.582031 158.140625 212.640625 160.386719 C 212.640625 160.550781 212.628906 160.726562 212.613281 160.90625 L 206.808594 160.90625 L 206.808594 161.011719 C 206.851562 162.453125 207.746094 163.464844 209.167969 163.464844 C 210.222656 163.464844 211.042969 162.898438 211.292969 161.917969 L 212.511719 161.917969 C 212.21875 163.433594 210.984375 164.546875 209.257812 164.546875 Z M 206.882812 159.894531 L 211.351562 159.894531 C 211.234375 158.589844 210.355469 157.859375 209.109375 157.859375 C 208.011719 157.859375 207 158.664062 206.882812 159.894531 Z M 217.179688 156.878906 L 217.515625 156.878906 L 217.515625 158.066406 L 216.914062 158.066406 C 215.347656 158.066406 214.921875 159.390625 214.921875 160.59375 L 214.921875 164.457031 L 213.71875 164.457031 L 213.71875 156.878906 L 214.761719 156.878906 L 214.921875 158.023438 C 215.273438 157.445312 215.847656 156.878906 217.179688 156.878906 Z M 226.394531 164.546875 C 223.449219 164.546875 221.601562 162.4375 221.601562 159.257812 C 221.601562 156.105469 223.523438 153.964844 226.5 153.964844 C 228.769531 153.964844 230.425781 155.304688 230.808594 157.457031 L 229.457031 157.457031 C 229.0625 156.015625 227.980469 155.15625 226.441406 155.15625 C 224.285156 155.15625 222.90625 156.847656 222.90625 159.257812 C 222.90625 161.648438 224.226562 163.359375 226.382812 163.359375 C 227.964844 163.359375 229.0625 162.511719 229.445312 161.054688 L 230.792969 161.054688 C 230.410156 163.210938 228.710938 164.546875 226.394531 164.546875 Z M 235.308594 164.546875 C 233.125 164.546875 231.597656 162.972656 231.597656 160.667969 C 231.597656 158.363281 233.125 156.789062 235.308594 156.789062 C 237.492188 156.789062 239.015625 158.363281 239.015625 160.667969 C 239.015625 162.972656 237.492188 164.546875 235.308594 164.546875 Z M 235.308594 163.464844 C 236.789062 163.464844 237.785156 162.289062 237.785156 160.667969 C 237.785156 159.050781 236.789062 157.875 235.308594 157.875 C 233.828125 157.875 232.832031 159.050781 232.832031 160.667969 C 232.832031 162.289062 233.828125 163.464844 235.308594 163.464844 Z M 248.441406 156.789062 C 249.996094 156.789062 251.269531 157.695312 251.269531 160.089844 L 251.269531 164.457031 L 250.066406 164.457031 L 250.066406 160.164062 C 250.066406 158.675781 249.421875 157.90625 248.292969 157.90625 C 247.046875 157.90625 246.285156 158.855469 246.285156 160.402344 L 246.285156 164.457031 L 245.085938 164.457031 L 245.085938 160.164062 C 245.085938 158.675781 244.425781 157.90625 243.28125 157.90625 C 242.050781 157.90625 241.304688 158.945312 241.304688 160.460938 L 241.304688 164.457031 L 240.101562 164.457031 L 240.101562 156.878906 L 241.140625 156.878906 L 241.304688 157.917969 C 241.699219 157.371094 242.328125 156.789062 243.488281 156.789062 C 244.527344 156.789062 245.421875 157.265625 245.847656 158.230469 C 246.300781 157.414062 247.105469 156.789062 248.441406 156.789062 Z M 260.859375 156.789062 C 262.410156 156.789062 263.6875 157.695312 263.6875 160.089844 L 263.6875 164.457031 L 262.484375 164.457031 L 262.484375 160.164062 C 262.484375 158.675781 261.839844 157.90625 260.710938 157.90625 C 259.464844 157.90625 258.703125 158.855469 258.703125 160.402344 L 258.703125 164.457031 L 257.5 164.457031 L 257.5 160.164062 C 257.5 158.675781 256.839844 157.90625 255.699219 157.90625 C 254.46875 157.90625 253.71875 158.945312 253.71875 160.460938 L 253.71875 164.457031 L 252.519531 164.457031 L 252.519531 156.878906 L 253.558594 156.878906 L 253.71875 157.917969 C 254.117188 157.371094 254.746094 156.789062 255.902344 156.789062 C 256.945312 156.789062 257.839844 157.265625 258.261719 158.230469 C 258.71875 157.414062 259.523438 156.789062 260.859375 156.789062 Z M 270.167969 160.667969 L 270.167969 156.878906 L 271.371094 156.878906 L 271.371094 164.457031 L 270.328125 164.457031 L 270.167969 163.449219 C 269.726562 164.011719 269.007812 164.546875 267.777344 164.546875 C 266.136719 164.546875 264.832031 163.613281 264.832031 161.101562 L 264.832031 156.878906 L 266.035156 156.878906 L 266.035156 161.027344 C 266.035156 162.601562 266.738281 163.433594 267.984375 163.433594 C 269.347656 163.433594 270.167969 162.378906 270.167969 160.667969 Z M 276.378906 156.789062 C 278.0625 156.789062 279.398438 157.726562 279.398438 160.238281 L 279.398438 164.457031 L 278.195312 164.457031 L 278.195312 160.3125 C 278.195312 158.738281 277.476562 157.90625 276.171875 157.90625 C 274.765625 157.90625 273.917969 158.960938 273.917969 160.667969 L 273.917969 164.457031 L 272.714844 164.457031 L 272.714844 156.878906 L 273.753906 156.878906 L 273.917969 157.90625 C 274.355469 157.324219 275.117188 156.789062 276.378906 156.789062 Z M 281.253906 155.601562 C 280.8125 155.601562 280.476562 155.273438 280.476562 154.8125 C 280.476562 154.351562 280.8125 154.027344 281.253906 154.027344 C 281.691406 154.027344 282.027344 154.351562 282.027344 154.8125 C 282.027344 155.273438 281.691406 155.601562 281.253906 155.601562 Z M 280.636719 164.457031 L 280.636719 156.878906 L 281.839844 156.878906 L 281.839844 164.457031 Z M 283.75 162.480469 L 283.75 157.992188 L 282.398438 157.992188 L 282.398438 156.878906 L 283.75 156.878906 L 283.75 154.753906 L 284.949219 154.753906 L 284.949219 156.878906 L 286.886719 156.878906 L 286.886719 157.992188 L 284.949219 157.992188 L 284.949219 162.46875 C 284.949219 163.105469 285.171875 163.34375 285.816406 163.34375 L 287.003906 163.34375 L 287.003906 164.457031 L 285.699219 164.457031 C 284.261719 164.457031 283.75 163.820312 283.75 162.480469 Z M 289.921875 164.503906 L 287.003906 156.878906 L 288.277344 156.878906 L 290.578125 162.929688 L 292.808594 156.878906 L 294.082031 156.878906 L 290.640625 165.738281 C 290.167969 166.957031 289.890625 167.429688 288.835938 167.429688 L 287.398438 167.429688 L 287.398438 166.316406 L 288.46875 166.316406 C 289.160156 166.316406 289.277344 166.136719 289.554688 165.425781 Z M 298.40625 164.457031 L 298.40625 154.054688 L 302.347656 154.054688 C 304.398438 154.054688 305.75 155.304688 305.75 157.25 C 305.75 159.199219 304.398438 160.460938 302.347656 160.460938 L 299.679688 160.460938 L 299.679688 164.457031 Z M 302.246094 155.242188 L 299.679688 155.242188 L 299.679688 159.273438 L 302.230469 159.273438 C 303.578125 159.273438 304.445312 158.484375 304.445312 157.25 C 304.445312 156.015625 303.59375 155.242188 302.246094 155.242188 Z M 310.097656 156.878906 L 310.433594 156.878906 L 310.433594 158.066406 L 309.835938 158.066406 C 308.265625 158.066406 307.839844 159.390625 307.839844 160.59375 L 307.839844 164.457031 L 306.640625 164.457031 L 306.640625 156.878906 L 307.679688 156.878906 L 307.839844 158.023438 C 308.191406 157.445312 308.765625 156.878906 310.097656 156.878906 Z M 314.199219 164.546875 C 312.015625 164.546875 310.488281 162.972656 310.488281 160.667969 C 310.488281 158.363281 312.015625 156.789062 314.199219 156.789062 C 316.382812 156.789062 317.90625 158.363281 317.90625 160.667969 C 317.90625 162.972656 316.382812 164.546875 314.199219 164.546875 Z M 314.199219 163.464844 C 315.679688 163.464844 316.675781 162.289062 316.675781 160.667969 C 316.675781 159.050781 315.679688 157.875 314.199219 157.875 C 312.71875 157.875 311.722656 159.050781 311.722656 160.667969 C 311.722656 162.289062 312.71875 163.464844 314.199219 163.464844 Z M 324.882812 158.039062 L 324.882812 154.054688 L 326.085938 154.054688 L 326.085938 164.457031 L 325.042969 164.457031 L 324.882812 163.238281 C 324.382812 163.9375 323.578125 164.546875 322.316406 164.546875 C 320.25 164.546875 318.726562 163.136719 318.726562 160.667969 C 318.726562 158.351562 320.25 156.789062 322.316406 156.789062 C 323.578125 156.789062 324.429688 157.308594 324.882812 158.039062 Z M 322.433594 163.464844 C 323.902344 163.464844 324.898438 162.320312 324.898438 160.699219 C 324.898438 159.035156 323.902344 157.875 322.433594 157.875 C 320.953125 157.875 319.957031 159.019531 319.957031 160.667969 C 319.957031 162.320312 320.953125 163.464844 322.433594 163.464844 Z M 332.660156 160.667969 L 332.660156 156.878906 L 333.863281 156.878906 L 333.863281 164.457031 L 332.824219 164.457031 L 332.660156 163.449219 C 332.222656 164.011719 331.503906 164.546875 330.273438 164.546875 C 328.632812 164.546875 327.328125 163.613281 327.328125 161.101562 L 327.328125 156.878906 L 328.527344 156.878906 L 328.527344 161.027344 C 328.527344 162.601562 329.230469 163.433594 330.476562 163.433594 C 331.839844 163.433594 332.660156 162.378906 332.660156 160.667969 Z M 338.566406 164.546875 C 336.382812 164.546875 334.945312 163.046875 334.945312 160.683594 C 334.945312 158.363281 336.425781 156.789062 338.59375 156.789062 C 340.425781 156.789062 341.585938 157.832031 341.890625 159.496094 L 340.632812 159.496094 C 340.410156 158.484375 339.679688 157.875 338.578125 157.875 C 337.144531 157.875 336.175781 159.035156 336.175781 160.683594 C 336.175781 162.332031 337.144531 163.464844 338.578125 163.464844 C 339.648438 163.464844 340.382812 162.839844 340.617188 161.871094 L 341.890625 161.871094 C 341.597656 163.507812 340.382812 164.546875 338.566406 164.546875 Z M 343.472656 162.480469 L 343.472656 157.992188 L 342.125 157.992188 L 342.125 156.878906 L 343.472656 156.878906 L 343.472656 154.753906 L 344.675781 154.753906 L 344.675781 156.878906 L 346.609375 156.878906 L 346.609375 157.992188 L 344.675781 157.992188 L 344.675781 162.46875 C 344.675781 163.105469 344.894531 163.34375 345.539062 163.34375 L 346.726562 163.34375 L 346.726562 164.457031 L 345.421875 164.457031 C 343.988281 164.457031 343.472656 163.820312 343.472656 162.480469 Z M 347.167969 161.960938 L 348.398438 161.960938 C 348.445312 162.855469 349.21875 163.507812 350.464844 163.507812 C 351.523438 163.507812 352.269531 163.046875 352.269531 162.347656 C 352.269531 161.398438 351.449219 161.324219 350.335938 161.1875 C 348.664062 160.980469 347.328125 160.640625 347.328125 159.0625 C 347.328125 157.679688 348.574219 156.773438 350.261719 156.789062 C 351.960938 156.804688 353.191406 157.605469 353.308594 159.183594 L 352.078125 159.183594 C 351.992188 158.410156 351.289062 157.832031 350.261719 157.832031 C 349.21875 157.832031 348.515625 158.277344 348.515625 158.972656 C 348.515625 159.808594 349.308594 159.910156 350.394531 160.042969 C 352.09375 160.253906 353.457031 160.578125 353.457031 162.257812 C 353.457031 163.671875 352.121094 164.546875 350.464844 164.546875 C 348.53125 164.546875 347.199219 163.625 347.167969 161.960938 Z M 347.167969 161.960938 " fill-opacity="1" fill-rule="nonzero"/></g></svg>