<svg xmlns="http://www.w3.org/2000/svg" xmlns:xlink="http://www.w3.org/1999/xlink" width="500" zoomAndPan="magnify" viewBox="0 0 375 374.999991" height="500" preserveAspectRatio="xMidYMid meet" version="1.0"><defs><clipPath id="257f1f2523"><path d="M 154.84375 153.929688 L 353.59375 153.929688 L 353.59375 167.429688 L 154.84375 167.429688 Z M 154.84375 153.929688 " clip-rule="nonzero"/></clipPath></defs><path fill="#ffffff" d="M 102.359375 86.679688 L 100.707031 107.078125 L 100.710938 107.082031 C 99.929688 106.984375 99.136719 106.933594 98.328125 106.933594 C 97.324219 106.933594 96.335938 107.007812 95.371094 107.15625 L 94.429688 97.261719 C 94.402344 96.953125 94.648438 96.683594 94.957031 96.6875 L 96.648438 96.6875 L 95.835938 86.679688 C 95.808594 86.375 96.050781 86.109375 96.359375 86.109375 L 101.835938 86.109375 C 102.140625 86.109375 102.386719 86.371094 102.359375 86.679688 Z M 88.539062 87.691406 C 88.457031 87.394531 88.140625 87.230469 87.851562 87.335938 L 82.703125 89.210938 C 82.414062 89.316406 82.277344 89.648438 82.40625 89.925781 L 86.59375 99.054688 L 85.003906 99.628906 C 84.710938 99.734375 84.570312 100.070312 84.707031 100.351562 L 88.972656 109.328125 C 90.519531 108.476562 92.195312 107.832031 93.960938 107.429688 Z M 75.902344 93.371094 L 87.746094 110.0625 C 86.246094 111.039062 84.886719 112.21875 83.710938 113.558594 L 76.625 106.582031 C 76.402344 106.363281 76.417969 106 76.65625 105.800781 L 77.953125 104.714844 L 70.898438 97.574219 C 70.683594 97.355469 70.699219 96.996094 70.9375 96.796875 L 75.128906 93.273438 C 75.367188 93.074219 75.722656 93.121094 75.902344 93.371094 Z M 65.964844 103.035156 C 65.710938 102.859375 65.363281 102.9375 65.207031 103.203125 L 62.46875 107.945312 C 62.316406 108.214844 62.421875 108.554688 62.699219 108.6875 L 71.773438 112.988281 L 70.925781 114.449219 C 70.765625 114.71875 70.878906 115.066406 71.164062 115.195312 L 80.199219 119.328125 C 80.855469 117.648438 81.730469 116.078125 82.800781 114.664062 L 65.964844 103.03125 Z M 59.28125 115.929688 C 59.335938 115.625 59.632812 115.429688 59.933594 115.507812 L 79.730469 120.679688 C 79.214844 122.351562 78.929688 124.121094 78.890625 125.953125 L 68.980469 125.160156 C 68.667969 125.132812 68.445312 124.847656 68.5 124.539062 L 68.796875 122.878906 L 58.800781 121.941406 C 58.496094 121.910156 58.277344 121.625 58.332031 121.324219 L 59.28125 115.925781 Z M 58.535156 129.296875 C 58.226562 129.328125 58.007812 129.613281 58.0625 129.917969 L 59.015625 135.3125 C 59.066406 135.617188 59.371094 135.808594 59.667969 135.730469 L 69.378906 133.191406 L 69.667969 134.855469 C 69.722656 135.160156 70.03125 135.355469 70.328125 135.273438 L 79.910156 132.628906 C 79.34375 130.96875 78.996094 129.210938 78.902344 127.382812 L 58.535156 129.300781 Z M 61.703125 143.476562 C 61.546875 143.207031 61.652344 142.867188 61.933594 142.734375 L 80.417969 133.96875 C 81.121094 135.625 82.050781 137.164062 83.164062 138.546875 L 75.0625 144.3125 C 74.8125 144.492188 74.453125 144.414062 74.300781 144.144531 L 73.457031 142.679688 L 65.199219 148.390625 C 64.945312 148.566406 64.597656 148.488281 64.441406 148.21875 Z M 84.097656 139.632812 L 69.71875 154.199219 C 69.503906 154.414062 69.523438 154.773438 69.757812 154.972656 L 73.953125 158.492188 C 74.191406 158.691406 74.546875 158.644531 74.722656 158.394531 L 80.53125 150.207031 L 81.824219 151.296875 C 82.0625 151.496094 82.421875 151.449219 82.601562 151.195312 L 88.238281 143.011719 C 86.710938 142.082031 85.320312 140.941406 84.101562 139.636719 Z M 81.257812 163.019531 C 80.96875 162.914062 80.832031 162.585938 80.960938 162.304688 L 89.488281 143.699219 C 91.058594 144.503906 92.75 145.101562 94.53125 145.453125 L 92.03125 155.074219 C 91.953125 155.375 91.632812 155.542969 91.339844 155.4375 L 89.753906 154.855469 L 87.09375 164.539062 C 87.011719 164.835938 86.695312 165 86.40625 164.894531 Z M 95.945312 145.679688 C 95.945312 145.679688 95.941406 145.679688 95.941406 145.679688 Z M 95.945312 145.679688 L 94.292969 166.078125 C 94.265625 166.386719 94.507812 166.652344 94.816406 166.652344 L 100.292969 166.652344 C 100.601562 166.652344 100.84375 166.386719 100.816406 166.078125 L 100.003906 156.070312 L 101.695312 156.070312 C 102.003906 156.074219 102.25 155.804688 102.222656 155.496094 L 101.28125 145.605469 C 100.316406 145.75 99.328125 145.828125 98.324219 145.828125 C 97.519531 145.828125 96.726562 145.773438 95.945312 145.675781 Z M 115.695312 90.449219 C 115.824219 90.171875 115.683594 89.839844 115.394531 89.734375 L 110.25 87.863281 C 109.960938 87.757812 109.640625 87.921875 109.558594 88.214844 L 106.902344 97.898438 L 105.3125 97.316406 C 105.023438 97.210938 104.699219 97.378906 104.621094 97.679688 L 102.121094 107.300781 C 103.902344 107.652344 105.59375 108.25 107.164062 109.054688 Z M 126.933594 98.558594 L 112.554688 113.125 L 112.554688 113.121094 C 111.335938 111.816406 109.945312 110.675781 108.414062 109.746094 L 114.054688 101.5625 C 114.230469 101.308594 114.589844 101.257812 114.828125 101.460938 L 116.121094 102.550781 L 121.929688 94.359375 C 122.109375 94.109375 122.464844 94.0625 122.699219 94.261719 L 126.898438 97.78125 C 127.132812 97.980469 127.148438 98.339844 126.933594 98.558594 Z M 134.722656 110.023438 C 135 109.890625 135.105469 109.546875 134.953125 109.28125 L 132.210938 104.535156 C 132.058594 104.269531 131.710938 104.191406 131.453125 104.367188 L 123.195312 110.074219 L 122.355469 108.613281 C 122.199219 108.339844 121.84375 108.261719 121.589844 108.445312 L 113.488281 114.207031 C 114.605469 115.589844 115.53125 117.128906 116.238281 118.789062 Z M 137.636719 117.445312 L 138.589844 122.84375 C 138.644531 123.148438 138.429688 123.433594 138.121094 123.460938 L 117.75 125.375 C 117.65625 123.550781 117.308594 121.792969 116.742188 120.132812 L 126.324219 117.488281 C 126.625 117.402344 126.929688 117.597656 126.984375 117.90625 L 127.273438 119.566406 L 136.988281 117.03125 C 137.285156 116.949219 137.585938 117.144531 137.640625 117.449219 Z M 136.71875 137.246094 C 137.015625 137.324219 137.316406 137.132812 137.371094 136.824219 L 138.320312 131.433594 C 138.371094 131.128906 138.15625 130.84375 137.847656 130.8125 L 127.851562 129.878906 L 128.148438 128.214844 C 128.203125 127.90625 127.984375 127.621094 127.671875 127.597656 L 117.761719 126.800781 C 117.722656 128.632812 117.429688 130.402344 116.921875 132.074219 L 136.71875 137.242188 Z M 131.445312 149.550781 C 131.289062 149.816406 130.9375 149.894531 130.6875 149.722656 L 130.6875 149.71875 L 113.851562 138.089844 C 114.921875 136.675781 115.796875 135.105469 116.449219 133.425781 L 125.488281 137.558594 C 125.773438 137.691406 125.882812 138.035156 125.726562 138.304688 L 124.878906 139.765625 L 133.953125 144.066406 C 134.230469 144.199219 134.335938 144.542969 134.183594 144.808594 Z M 108.90625 142.695312 L 120.75 159.382812 C 120.929688 159.632812 121.28125 159.679688 121.519531 159.484375 L 125.714844 155.960938 C 125.949219 155.761719 125.964844 155.402344 125.75 155.183594 L 118.695312 148.042969 L 119.992188 146.957031 C 120.230469 146.757812 120.246094 146.394531 120.023438 146.179688 L 112.941406 139.199219 C 111.765625 140.542969 110.40625 141.71875 108.90625 142.695312 Z M 108.804688 165.417969 C 108.511719 165.523438 108.195312 165.359375 108.113281 165.0625 L 102.691406 145.328125 C 104.460938 144.925781 106.136719 144.28125 107.683594 143.429688 L 111.949219 152.40625 C 112.082031 152.6875 111.941406 153.023438 111.652344 153.128906 L 110.0625 153.703125 L 114.25 162.828125 C 114.375 163.109375 114.238281 163.441406 113.949219 163.546875 L 108.804688 165.421875 Z M 108.804688 165.417969 " fill-opacity="1" fill-rule="evenodd"/><path fill="#ffffff" d="M 293.945312 138.453125 C 287.1875 138.453125 282.410156 133.195312 282.410156 126.300781 C 282.410156 119.410156 287.1875 114.152344 293.945312 114.152344 C 300.703125 114.152344 305.34375 119.410156 305.34375 126.300781 C 305.34375 133.195312 300.636719 138.453125 293.945312 138.453125 Z M 292.855469 145.6875 C 298.316406 145.6875 302.957031 143.570312 305.890625 139.132812 C 306.4375 143.433594 309.578125 145.003906 313.535156 145.003906 L 316.675781 145.003906 L 316.675781 138.175781 L 315.308594 138.175781 C 313.058594 138.175781 312.511719 137.085938 312.511719 134.558594 L 312.511719 107.597656 L 305.277344 107.597656 L 305.277344 113.128906 C 302.820312 109.238281 298.179688 106.917969 292.855469 106.917969 C 283.367188 106.917969 274.632812 114.835938 274.632812 126.300781 C 274.632812 137.765625 283.367188 145.683594 292.855469 145.683594 Z M 255.585938 136.335938 C 255.585938 142.476562 259.410156 145.003906 263.984375 145.003906 L 272.785156 145.003906 L 272.785156 138.175781 L 266.371094 138.175781 C 263.710938 138.175781 263.164062 137.152344 263.164062 134.558594 L 263.164062 114.425781 L 272.785156 114.425781 L 272.785156 107.597656 L 263.164062 107.597656 L 263.164062 95.039062 L 255.585938 95.039062 Z M 221.117188 145.003906 L 228.695312 145.003906 L 228.695312 128.964844 L 231.21875 128.964844 L 244.121094 145.003906 L 253.675781 145.003906 L 237.226562 124.664062 L 249.855469 107.601562 L 241.324219 107.601562 L 231.015625 122.003906 L 228.695312 122.003906 L 228.695312 95.042969 L 221.117188 95.042969 Z M 196.546875 106.917969 C 185.96875 106.917969 177.230469 114.835938 177.230469 126.300781 C 177.230469 137.765625 185.96875 145.683594 196.546875 145.683594 C 207.125 145.683594 215.863281 137.765625 215.863281 126.300781 C 215.863281 114.835938 207.125 106.917969 196.546875 106.917969 Z M 196.546875 138.453125 C 189.789062 138.453125 185.011719 133.195312 185.011719 126.300781 C 185.011719 119.410156 189.789062 114.152344 196.546875 114.152344 C 203.304688 114.152344 208.082031 119.410156 208.082031 126.300781 C 208.082031 133.195312 203.304688 138.453125 196.546875 138.453125 Z M 196.546875 138.453125 " fill-opacity="1" fill-rule="nonzero"/><g clip-path="url(#257f1f2523)"><path fill="#ffffff" d="M 158.222656 164.320312 L 154.9375 164.320312 L 154.9375 154.054688 L 158.222656 154.054688 C 161.4375 154.054688 163.386719 156.105469 163.386719 159.1875 C 163.386719 162.253906 161.4375 164.320312 158.222656 164.320312 Z M 156.214844 155.226562 L 156.214844 163.148438 L 158.222656 163.148438 C 160.71875 163.148438 162.082031 161.578125 162.082031 159.1875 C 162.082031 156.78125 160.71875 155.226562 158.222656 155.226562 Z M 167.972656 164.410156 C 165.726562 164.410156 164.261719 162.871094 164.261719 160.582031 C 164.261719 158.308594 165.699219 156.753906 167.8125 156.753906 C 169.921875 156.753906 171.300781 158.085938 171.359375 160.300781 C 171.359375 160.464844 171.347656 160.640625 171.332031 160.816406 L 165.523438 160.816406 L 165.523438 160.917969 C 165.566406 162.339844 166.460938 163.339844 167.882812 163.339844 C 168.941406 163.339844 169.761719 162.78125 170.011719 161.8125 L 171.226562 161.8125 C 170.933594 163.308594 169.703125 164.410156 167.972656 164.410156 Z M 165.59375 159.820312 L 170.070312 159.820312 C 169.953125 158.527344 169.070312 157.808594 167.824219 157.808594 C 166.726562 157.808594 165.710938 158.601562 165.59375 159.820312 Z M 174.164062 164.320312 L 171.363281 156.839844 L 172.652344 156.839844 L 174.910156 162.957031 L 177.15625 156.839844 L 178.417969 156.839844 L 175.617188 164.320312 Z M 182.140625 164.410156 C 179.894531 164.410156 178.429688 162.871094 178.429688 160.582031 C 178.429688 158.308594 179.867188 156.753906 181.980469 156.753906 C 184.089844 156.753906 185.46875 158.085938 185.527344 160.300781 C 185.527344 160.464844 185.515625 160.640625 185.5 160.816406 L 179.691406 160.816406 L 179.691406 160.917969 C 179.734375 162.339844 180.628906 163.339844 182.050781 163.339844 C 183.109375 163.339844 183.929688 162.78125 184.179688 161.8125 L 185.394531 161.8125 C 185.101562 163.308594 183.871094 164.410156 182.140625 164.410156 Z M 179.761719 159.820312 L 184.238281 159.820312 C 184.121094 158.527344 183.238281 157.808594 181.992188 157.808594 C 180.894531 157.808594 179.882812 158.601562 179.761719 159.820312 Z M 186.609375 164.320312 L 186.609375 154.054688 L 187.808594 154.054688 L 187.808594 164.320312 Z M 192.613281 164.410156 C 190.425781 164.410156 188.902344 162.855469 188.902344 160.582031 C 188.902344 158.308594 190.425781 156.753906 192.613281 156.753906 C 194.796875 156.753906 196.324219 158.308594 196.324219 160.582031 C 196.324219 162.855469 194.796875 164.410156 192.613281 164.410156 Z M 192.613281 163.339844 C 194.09375 163.339844 195.089844 162.179688 195.089844 160.582031 C 195.089844 158.980469 194.09375 157.824219 192.613281 157.824219 C 191.128906 157.824219 190.132812 158.980469 190.132812 160.582031 C 190.132812 162.179688 191.128906 163.339844 192.613281 163.339844 Z M 201.179688 156.753906 C 203.246094 156.753906 204.773438 158.144531 204.773438 160.582031 C 204.773438 162.871094 203.246094 164.410156 201.179688 164.410156 C 199.917969 164.410156 199.066406 163.894531 198.613281 163.175781 L 198.613281 167.253906 L 197.410156 167.253906 L 197.410156 156.839844 L 198.449219 156.839844 L 198.613281 158.042969 C 199.109375 157.355469 199.917969 156.753906 201.179688 156.753906 Z M 201.0625 163.339844 C 202.542969 163.339844 203.539062 162.210938 203.539062 160.582031 C 203.539062 158.953125 202.542969 157.824219 201.0625 157.824219 C 199.59375 157.824219 198.597656 158.953125 198.597656 160.550781 C 198.597656 162.195312 199.59375 163.339844 201.0625 163.339844 Z M 209.300781 164.410156 C 207.058594 164.410156 205.589844 162.871094 205.589844 160.582031 C 205.589844 158.308594 207.027344 156.753906 209.140625 156.753906 C 211.253906 156.753906 212.632812 158.085938 212.691406 160.300781 C 212.691406 160.464844 212.675781 160.640625 212.660156 160.816406 L 206.851562 160.816406 L 206.851562 160.917969 C 206.894531 162.339844 207.789062 163.339844 209.214844 163.339844 C 210.269531 163.339844 211.089844 162.78125 211.339844 161.8125 L 212.558594 161.8125 C 212.265625 163.308594 211.03125 164.410156 209.300781 164.410156 Z M 206.925781 159.820312 L 211.398438 159.820312 C 211.28125 158.527344 210.402344 157.808594 209.15625 157.808594 C 208.054688 157.808594 207.042969 158.601562 206.925781 159.820312 Z M 217.230469 156.839844 L 217.566406 156.839844 L 217.566406 158.015625 L 216.96875 158.015625 C 215.398438 158.015625 214.972656 159.320312 214.972656 160.507812 L 214.972656 164.320312 L 213.769531 164.320312 L 213.769531 156.839844 L 214.8125 156.839844 L 214.972656 157.96875 C 215.324219 157.398438 215.894531 156.839844 217.230469 156.839844 Z M 226.453125 164.410156 C 223.507812 164.410156 221.65625 162.328125 221.65625 159.1875 C 221.65625 156.078125 223.578125 153.964844 226.558594 153.964844 C 228.832031 153.964844 230.488281 155.285156 230.871094 157.414062 L 229.519531 157.414062 C 229.125 155.988281 228.039062 155.140625 226.5 155.140625 C 224.34375 155.140625 222.964844 156.8125 222.964844 159.1875 C 222.964844 161.550781 224.285156 163.234375 226.441406 163.234375 C 228.023438 163.234375 229.125 162.398438 229.503906 160.960938 L 230.855469 160.960938 C 230.472656 163.089844 228.773438 164.410156 226.453125 164.410156 Z M 235.375 164.410156 C 233.1875 164.410156 231.664062 162.855469 231.664062 160.582031 C 231.664062 158.308594 233.1875 156.753906 235.375 156.753906 C 237.558594 156.753906 239.085938 158.308594 239.085938 160.582031 C 239.085938 162.855469 237.558594 164.410156 235.375 164.410156 Z M 235.375 163.339844 C 236.855469 163.339844 237.851562 162.179688 237.851562 160.582031 C 237.851562 158.980469 236.855469 157.824219 235.375 157.824219 C 233.890625 157.824219 232.894531 158.980469 232.894531 160.582031 C 232.894531 162.179688 233.890625 163.339844 235.375 163.339844 Z M 248.519531 156.753906 C 250.074219 156.753906 251.347656 157.648438 251.347656 160.007812 L 251.347656 164.320312 L 250.144531 164.320312 L 250.144531 160.082031 C 250.144531 158.617188 249.5 157.851562 248.371094 157.851562 C 247.125 157.851562 246.363281 158.792969 246.363281 160.316406 L 246.363281 164.320312 L 245.160156 164.320312 L 245.160156 160.082031 C 245.160156 158.617188 244.5 157.851562 243.355469 157.851562 C 242.121094 157.851562 241.375 158.878906 241.375 160.375 L 241.375 164.320312 L 240.171875 164.320312 L 240.171875 156.839844 L 241.210938 156.839844 L 241.375 157.867188 C 241.769531 157.324219 242.402344 156.753906 243.558594 156.753906 C 244.601562 156.753906 245.496094 157.222656 245.921875 158.175781 C 246.375 157.367188 247.183594 156.753906 248.519531 156.753906 Z M 260.945312 156.753906 C 262.5 156.753906 263.777344 157.648438 263.777344 160.007812 L 263.777344 164.320312 L 262.574219 164.320312 L 262.574219 160.082031 C 262.574219 158.617188 261.929688 157.851562 260.796875 157.851562 C 259.550781 157.851562 258.789062 158.792969 258.789062 160.316406 L 258.789062 164.320312 L 257.585938 164.320312 L 257.585938 160.082031 C 257.585938 158.617188 256.925781 157.851562 255.78125 157.851562 C 254.550781 157.851562 253.800781 158.878906 253.800781 160.375 L 253.800781 164.320312 L 252.597656 164.320312 L 252.597656 156.839844 L 253.640625 156.839844 L 253.800781 157.867188 C 254.199219 157.324219 254.828125 156.753906 255.988281 156.753906 C 257.027344 156.753906 257.921875 157.222656 258.347656 158.175781 C 258.804688 157.367188 259.609375 156.753906 260.945312 156.753906 Z M 270.261719 160.582031 L 270.261719 156.839844 L 271.464844 156.839844 L 271.464844 164.320312 L 270.425781 164.320312 L 270.261719 163.324219 C 269.824219 163.882812 269.105469 164.410156 267.871094 164.410156 C 266.230469 164.410156 264.921875 163.484375 264.921875 161.007812 L 264.921875 156.839844 L 266.125 156.839844 L 266.125 160.933594 C 266.125 162.488281 266.832031 163.308594 268.078125 163.308594 C 269.441406 163.308594 270.261719 162.269531 270.261719 160.582031 Z M 276.480469 156.753906 C 278.167969 156.753906 279.5 157.675781 279.5 160.15625 L 279.5 164.320312 L 278.296875 164.320312 L 278.296875 160.230469 C 278.296875 158.675781 277.578125 157.851562 276.273438 157.851562 C 274.867188 157.851562 274.015625 158.894531 274.015625 160.582031 L 274.015625 164.320312 L 272.8125 164.320312 L 272.8125 156.839844 L 273.851562 156.839844 L 274.015625 157.851562 C 274.453125 157.28125 275.21875 156.753906 276.480469 156.753906 Z M 281.355469 155.578125 C 280.917969 155.578125 280.578125 155.257812 280.578125 154.800781 C 280.578125 154.347656 280.917969 154.023438 281.355469 154.023438 C 281.796875 154.023438 282.132812 154.347656 282.132812 154.800781 C 282.132812 155.257812 281.796875 155.578125 281.355469 155.578125 Z M 280.742188 164.320312 L 280.742188 156.839844 L 281.945312 156.839844 L 281.945312 164.320312 Z M 283.855469 162.371094 L 283.855469 157.941406 L 282.503906 157.941406 L 282.503906 156.839844 L 283.855469 156.839844 L 283.855469 154.742188 L 285.058594 154.742188 L 285.058594 156.839844 L 286.996094 156.839844 L 286.996094 157.941406 L 285.058594 157.941406 L 285.058594 162.355469 C 285.058594 162.988281 285.277344 163.222656 285.921875 163.222656 L 287.113281 163.222656 L 287.113281 164.320312 L 285.804688 164.320312 C 284.367188 164.320312 283.855469 163.691406 283.855469 162.371094 Z M 290.03125 164.367188 L 287.113281 156.839844 L 288.390625 156.839844 L 290.691406 162.8125 L 292.921875 156.839844 L 294.199219 156.839844 L 290.75 165.582031 C 290.28125 166.785156 290.003906 167.253906 288.945312 167.253906 L 287.507812 167.253906 L 287.507812 166.15625 L 288.578125 166.15625 C 289.269531 166.15625 289.386719 165.980469 289.664062 165.273438 Z M 298.523438 164.320312 L 298.523438 154.054688 L 302.46875 154.054688 C 304.523438 154.054688 305.875 155.285156 305.875 157.207031 C 305.875 159.128906 304.523438 160.375 302.46875 160.375 L 299.800781 160.375 L 299.800781 164.320312 Z M 302.367188 155.226562 L 299.800781 155.226562 L 299.800781 159.203125 L 302.351562 159.203125 C 303.703125 159.203125 304.566406 158.425781 304.566406 157.207031 C 304.566406 155.988281 303.71875 155.226562 302.367188 155.226562 Z M 310.226562 156.839844 L 310.5625 156.839844 L 310.5625 158.015625 L 309.960938 158.015625 C 308.390625 158.015625 307.96875 159.320312 307.96875 160.507812 L 307.96875 164.320312 L 306.765625 164.320312 L 306.765625 156.839844 L 307.804688 156.839844 L 307.96875 157.96875 C 308.320312 157.398438 308.890625 156.839844 310.226562 156.839844 Z M 314.328125 164.410156 C 312.144531 164.410156 310.617188 162.855469 310.617188 160.582031 C 310.617188 158.308594 312.144531 156.753906 314.328125 156.753906 C 316.515625 156.753906 318.039062 158.308594 318.039062 160.582031 C 318.039062 162.855469 316.515625 164.410156 314.328125 164.410156 Z M 314.328125 163.339844 C 315.8125 163.339844 316.808594 162.179688 316.808594 160.582031 C 316.808594 158.980469 315.8125 157.824219 314.328125 157.824219 C 312.847656 157.824219 311.851562 158.980469 311.851562 160.582031 C 311.851562 162.179688 312.847656 163.339844 314.328125 163.339844 Z M 325.023438 157.984375 L 325.023438 154.054688 L 326.226562 154.054688 L 326.226562 164.320312 L 325.183594 164.320312 L 325.023438 163.117188 C 324.523438 163.808594 323.71875 164.410156 322.457031 164.410156 C 320.386719 164.410156 318.863281 163.015625 318.863281 160.582031 C 318.863281 158.292969 320.386719 156.753906 322.457031 156.753906 C 323.71875 156.753906 324.570312 157.265625 325.023438 157.984375 Z M 322.574219 163.339844 C 324.039062 163.339844 325.039062 162.210938 325.039062 160.609375 C 325.039062 158.96875 324.039062 157.824219 322.574219 157.824219 C 321.09375 157.824219 320.09375 158.953125 320.09375 160.582031 C 320.09375 162.210938 321.09375 163.339844 322.574219 163.339844 Z M 332.808594 160.582031 L 332.808594 156.839844 L 334.011719 156.839844 L 334.011719 164.320312 L 332.96875 164.320312 L 332.808594 163.324219 C 332.367188 163.882812 331.648438 164.410156 330.417969 164.410156 C 328.773438 164.410156 327.46875 163.484375 327.46875 161.007812 L 327.46875 156.839844 L 328.671875 156.839844 L 328.671875 160.933594 C 328.671875 162.488281 329.375 163.308594 330.625 163.308594 C 331.988281 163.308594 332.808594 162.269531 332.808594 160.582031 Z M 338.714844 164.410156 C 336.53125 164.410156 335.09375 162.929688 335.09375 160.597656 C 335.09375 158.308594 336.574219 156.753906 338.746094 156.753906 C 340.578125 156.753906 341.738281 157.78125 342.046875 159.421875 L 340.785156 159.421875 C 340.566406 158.425781 339.832031 157.824219 338.730469 157.824219 C 337.292969 157.824219 336.324219 158.96875 336.324219 160.597656 C 336.324219 162.222656 337.292969 163.339844 338.730469 163.339844 C 339.800781 163.339844 340.535156 162.722656 340.769531 161.769531 L 342.046875 161.769531 C 341.753906 163.382812 340.535156 164.410156 338.714844 164.410156 Z M 343.628906 162.371094 L 343.628906 157.941406 L 342.28125 157.941406 L 342.28125 156.839844 L 343.628906 156.839844 L 343.628906 154.742188 L 344.832031 154.742188 L 344.832031 156.839844 L 346.769531 156.839844 L 346.769531 157.941406 L 344.832031 157.941406 L 344.832031 162.355469 C 344.832031 162.988281 345.050781 163.222656 345.699219 163.222656 L 346.886719 163.222656 L 346.886719 164.320312 L 345.582031 164.320312 C 344.144531 164.320312 343.628906 163.691406 343.628906 162.371094 Z M 347.328125 161.855469 L 348.558594 161.855469 C 348.605469 162.738281 349.382812 163.382812 350.628906 163.382812 C 351.683594 163.382812 352.433594 162.929688 352.433594 162.238281 C 352.433594 161.300781 351.609375 161.226562 350.496094 161.09375 C 348.824219 160.890625 347.488281 160.550781 347.488281 158.996094 C 347.488281 157.632812 348.734375 156.738281 350.421875 156.753906 C 352.125 156.765625 353.355469 157.558594 353.472656 159.113281 L 352.242188 159.113281 C 352.152344 158.351562 351.449219 157.78125 350.421875 157.78125 C 349.382812 157.78125 348.675781 158.21875 348.675781 158.910156 C 348.675781 159.730469 349.46875 159.832031 350.554688 159.964844 C 352.257812 160.171875 353.621094 160.492188 353.621094 162.152344 C 353.621094 163.542969 352.285156 164.410156 350.628906 164.410156 C 348.691406 164.410156 347.355469 163.5 347.328125 161.855469 Z M 347.328125 161.855469 " fill-opacity="1" fill-rule="nonzero"/></g></svg>